<svg width="480" height="360" viewBox="0 0 480 360" fill="none" xmlns="http://www.w3.org/2000/svg">
<path d="M0 301V205.182C29.9713 215.965 59.9426 226.748 90.6667 222.429C121.391 218.11 152.868 198.69 184.333 189.851C215.799 181.011 247.254 182.754 284.333 191.288C321.413 199.822 364.118 215.148 397.667 218.596C431.215 222.044 455.608 213.613 480 205.182V301H0Z" fill="#FF6666"/>
<path d="M250.614 10.4303C250.442 7.94772 239.353 15.1698 239.353 15.1698C239.353 15.1698 248.746 7.94772 247.941 6.14221C247.136 4.3367 236.551 12.2358 236.551 12.2358C236.551 12.2358 246.213 4.78808 244.721 3.19751C243.228 1.60694 232.912 9.97892 232.912 9.97892C232.912 9.97892 243.432 0.714936 239.417 0.489247C237.614 0.392523 223.454 10.0327 208.113 21.6073C212.407 26.9808 216.701 32.1716 221.339 37.1905C226.256 32.0964 230.131 28.0448 230.657 27.3677C232.235 25.3365 247.909 26.6906 247.973 24.208C248.038 21.7255 237.646 20.597 237.646 20.597C237.646 20.597 250.786 12.9129 250.614 10.4303Z" fill="#E1D1D1"/>
<path d="M221.275 37.6742C221.208 37.6754 221.143 37.6626 221.082 37.6367C221.021 37.6108 220.966 37.5723 220.92 37.5237C216.798 33.053 212.59 28.0986 207.662 21.9082C207.621 21.8575 207.591 21.799 207.572 21.7363C207.554 21.6736 207.548 21.6078 207.555 21.5428C207.576 21.4117 207.645 21.293 207.748 21.2097C219.095 12.612 236.809 0.00570241 239.342 0.00570241C239.618 -0.0204853 239.895 0.0439973 240.132 0.189409C240.368 0.334821 240.551 0.553262 240.652 0.811733C240.995 1.77897 239.793 3.56298 238.215 5.35775C241.156 3.39103 244.098 1.87569 245.021 2.86442C245.129 2.98006 245.21 3.11802 245.258 3.26848C245.306 3.41895 245.321 3.57822 245.3 3.73494C245.225 4.6162 244.227 5.88435 242.896 7.29222C244.914 6.09929 246.803 5.19654 247.673 5.42223C247.812 5.44962 247.943 5.50966 248.055 5.59744C248.167 5.68523 248.257 5.79827 248.317 5.92734C248.843 7.05578 246.825 9.35566 244.474 11.5158C246.996 10.1617 249.551 9.06549 250.528 9.55985C250.687 9.6372 250.821 9.75594 250.917 9.9035C251.014 10.0511 251.069 10.222 251.076 10.3981C251.237 12.7195 242.702 18.093 239.042 20.2854C242.391 20.7476 248.413 21.8975 248.36 24.2189C248.36 25.9062 244.806 26.1856 239.063 26.4865C235.714 26.6692 231.548 26.8949 230.947 27.6687C230.346 28.4425 227.405 31.5161 221.597 37.5345C221.509 37.6166 221.395 37.6659 221.275 37.6742ZM208.747 21.6933C213.374 27.4967 217.335 32.2147 221.285 36.4705C228.092 29.4204 229.874 27.4645 230.206 27.0668C231.022 25.9921 234.093 25.7772 239.042 25.5085C241.962 25.3473 247.394 25.0571 247.415 24.1974C247.415 22.94 242.305 21.6073 237.528 21.0807C237.426 21.069 237.331 21.0252 237.256 20.9556C237.18 20.8861 237.129 20.7944 237.109 20.6938C237.088 20.5935 237.098 20.4889 237.138 20.3945C237.178 20.3001 237.247 20.2207 237.335 20.1672C243.701 16.4702 250.217 11.8275 250.131 10.4948C249.466 10.0327 244.656 12.3863 239.621 15.6642C239.515 15.7197 239.392 15.7344 239.275 15.7055C239.158 15.6766 239.056 15.6061 238.988 15.5073C238.919 15.4084 238.889 15.288 238.903 15.1685C238.917 15.049 238.974 14.9386 239.063 14.8582C243.905 11.1397 247.834 7.19549 247.469 6.42171C246.75 6.06705 241.854 8.93652 236.83 12.7087C236.726 12.7886 236.595 12.8238 236.465 12.8066C236.335 12.7895 236.217 12.7214 236.138 12.6174C236.058 12.5134 236.023 12.3819 236.04 12.2519C236.057 12.1219 236.125 12.004 236.229 11.9242C239.31 9.53835 244.237 5.20729 244.366 3.73494C244.366 3.67045 244.366 3.62747 244.366 3.61672C243.765 2.9504 238.43 6.20677 233.191 10.4411C233.088 10.5185 232.96 10.5537 232.832 10.5398C232.705 10.5258 232.587 10.4636 232.504 10.3659C232.459 10.3218 232.423 10.2692 232.398 10.211C232.374 10.1529 232.361 10.0904 232.361 10.0273C232.361 9.96425 232.374 9.9018 232.398 9.84366C232.423 9.78552 232.459 9.73287 232.504 9.68882C236.25 6.37872 240.083 2.16586 239.739 1.20937C239.739 1.11265 239.492 1.06966 239.299 1.05892C237.829 0.983686 225.794 8.86129 208.747 21.6933Z" fill="#231F20"/>
<path d="M166.739 58.4914C163.583 68.4754 182.649 114.591 182.649 114.591L206.267 85.3698C205.741 84.4671 193.803 63.6822 193.803 63.6822C193.803 63.6822 211.42 47.3574 221.243 37.1907C216.626 32.1718 212.268 26.938 208.017 21.6074C189.166 35.8365 168.479 52.9889 166.739 58.4914Z" fill="#231F20"/>
<path d="M182.649 115.064H182.531C182.45 115.052 182.373 115.019 182.309 114.968C182.245 114.917 182.196 114.85 182.166 114.774C181.382 112.893 163.068 68.4 166.246 58.3622C168.038 52.6985 188.79 35.4709 207.716 21.2418C207.813 21.1664 207.936 21.1321 208.059 21.1462C208.181 21.1602 208.293 21.2215 208.371 21.317C213.277 27.4858 217.474 32.4295 221.586 36.8788C221.665 36.9675 221.709 37.0822 221.709 37.2012C221.709 37.3202 221.665 37.4349 221.586 37.5236C212.536 46.8951 196.68 61.6615 194.394 63.7787C195.918 66.4332 206.202 84.3056 206.685 85.1439C206.737 85.2239 206.765 85.3172 206.765 85.4126C206.765 85.5079 206.737 85.6012 206.685 85.6813L183.068 114.892C183.018 114.953 182.954 115.001 182.88 115.031C182.807 115.061 182.728 115.072 182.649 115.064ZM207.963 22.2628C190.142 35.7181 168.908 53.2143 167.169 58.6309C164.313 67.6584 180.341 107.713 182.757 113.667L205.709 85.3266L193.417 63.9184C193.366 63.8229 193.348 63.7133 193.365 63.6066C193.383 63.4998 193.435 63.4017 193.513 63.3273C193.685 63.1661 210.861 47.2067 220.631 37.1797C216.68 32.8809 212.644 28.1307 207.963 22.2628Z" fill="#231F20"/>
<path d="M222.885 106.165C224.817 119.556 233.717 130.883 243.379 141.233C249.165 147.38 256.261 153.635 264.731 153.237C268.778 153.033 272.579 151.292 276.111 149.315C284.954 144.399 292.865 137.964 299.481 130.303C298.185 130.308 296.933 129.831 295.968 128.966C295.002 128.101 294.391 126.907 294.253 125.617C295.98 126.426 297.896 126.741 299.79 126.529C301.684 126.317 303.483 125.585 304.988 124.414C311.558 119.191 308.37 114.58 303.346 110.69C295.49 104.627 289.242 96.7257 285.15 87.6802C278.88 73.6445 266.427 54.8909 247.984 59.1682C230.249 63.2736 225.44 79.2008 222.992 94.999C222.399 98.6948 222.363 102.459 222.885 106.165Z" fill="#E1D1D1"/>
<path d="M263.937 153.743C255.617 153.743 248.703 147.617 243.024 141.566C233.953 131.894 224.409 120.147 222.402 106.241C221.858 102.468 221.883 98.6352 222.477 94.8702C223.551 88.0996 225.258 79.4267 229.305 72.3981C231.216 68.8995 233.863 65.8571 237.061 63.4805C240.26 61.1039 243.935 59.4494 247.834 58.6311C256.25 56.6859 272.332 57.8358 285.568 87.4225C289.618 96.4004 295.817 104.241 303.614 110.249C307.372 113.162 309.132 115.72 309.154 118.32C309.154 120.47 307.855 122.684 305.257 124.769C303.808 125.894 302.098 126.633 300.286 126.917C298.474 127.201 296.62 127.02 294.897 126.391C295.202 127.367 295.808 128.22 296.628 128.828C297.448 129.437 298.439 129.769 299.46 129.777C299.556 129.772 299.651 129.796 299.733 129.846C299.815 129.896 299.881 129.969 299.921 130.056C299.963 130.141 299.978 130.237 299.965 130.331C299.951 130.425 299.91 130.513 299.846 130.583C293.213 138.324 285.256 144.82 276.347 149.766C273.03 151.615 269.047 153.539 264.753 153.743H263.937ZM253.062 59.018C251.378 59.0187 249.7 59.2098 248.059 59.5876C230.636 63.6285 225.934 78.9968 223.443 95.0529C222.866 98.7183 222.84 102.45 223.368 106.122C225.333 119.771 234.769 131.378 243.765 140.921C249.476 147.004 256.422 153.173 264.731 152.743C268.821 152.55 272.675 150.68 275.896 148.885C284.398 144.151 292.023 137.989 298.44 130.669C297.215 130.446 296.096 129.833 295.248 128.92C294.401 128.008 293.871 126.846 293.738 125.607C293.73 125.521 293.746 125.434 293.784 125.357C293.822 125.279 293.88 125.213 293.953 125.166C294.025 125.122 294.109 125.098 294.194 125.098C294.279 125.098 294.363 125.122 294.436 125.166C296.075 125.93 297.892 126.228 299.689 126.027C301.486 125.826 303.193 125.134 304.623 124.027C306.974 122.146 308.166 120.244 308.145 118.363C308.145 116.128 306.448 113.742 302.992 111.066C295.071 104.959 288.774 96.9936 284.656 87.8739C274.039 64.0584 261.65 59.018 253.062 59.018Z" fill="#231F20"/>
<path d="M345.514 148.197C344.763 151.174 332.428 173.227 332.428 173.227L348.531 181.943C348.531 181.943 363.099 157.504 364.344 155.881C365.589 154.258 376.153 140.169 377.591 135.225C379.03 130.282 368.874 126.628 364.709 127.025C360.544 127.423 346.266 145.22 345.514 148.197Z" fill="#E1D1D1"/>
<path d="M348.509 182.437C348.43 182.438 348.351 182.415 348.284 182.373L332.181 173.657C332.123 173.626 332.072 173.583 332.031 173.532C331.99 173.48 331.961 173.42 331.945 173.356C331.918 173.297 331.905 173.233 331.905 173.168C331.905 173.103 331.918 173.039 331.945 172.98C336.239 165.382 344.387 150.411 344.977 148.079C345.772 144.919 360.211 126.918 364.569 126.585C367.736 126.316 374.338 128.24 376.99 131.453C377.475 131.976 377.819 132.612 377.992 133.304C378.165 133.995 378.16 134.719 377.978 135.408C376.442 140.782 364.762 156.086 364.655 156.236C363.431 157.816 349.014 182.029 348.864 182.244C348.823 182.301 348.77 182.348 348.709 182.381C348.647 182.415 348.579 182.434 348.509 182.437ZM333.104 173.023L348.338 181.287C350.302 177.988 362.766 157.107 363.936 155.58C366.394 152.356 375.809 139.589 377.097 135.086C377.238 134.549 377.237 133.985 377.096 133.449C376.955 132.912 376.678 132.421 376.292 132.023C373.877 129.089 367.597 127.262 364.72 127.509C360.79 127.853 346.641 145.779 345.987 148.315C345.278 151.12 334.886 169.831 333.104 173.023Z" fill="#231F20"/>
<path d="M340.887 157.73L326.502 175.291L295.477 154.474L282.262 179.106C282.262 179.106 326.201 212.132 332.428 208.972C338.654 205.812 357.516 166.843 357.516 166.843L340.887 157.73Z" fill="#231F20"/>
<path d="M331.429 209.638C322.369 209.638 286.266 182.706 281.972 179.482C281.884 179.412 281.823 179.314 281.8 179.204C281.776 179.094 281.792 178.98 281.843 178.88L295.058 154.248C295.089 154.19 295.132 154.139 295.184 154.098C295.235 154.057 295.295 154.028 295.359 154.011C295.423 153.995 295.489 153.992 295.554 154.003C295.619 154.014 295.68 154.039 295.735 154.076L326.384 174.657L340.501 157.461C340.569 157.374 340.666 157.314 340.774 157.292C340.882 157.271 340.995 157.289 341.091 157.343L357.774 166.456C357.878 166.517 357.956 166.615 357.991 166.731C358.027 166.846 358.018 166.971 357.967 167.08C357.194 168.681 338.933 206.231 332.621 209.423C332.247 209.589 331.838 209.662 331.429 209.638ZM282.863 178.966C295.273 188.262 327.361 211.014 332.245 208.553C337.924 205.662 354.929 171.196 356.936 167.048L341.005 158.332L326.867 175.592C326.796 175.686 326.692 175.749 326.575 175.767C326.459 175.785 326.34 175.757 326.244 175.688L295.638 155.151L282.863 178.966Z" fill="#231F20"/>
<path d="M354.059 114.785L353.92 157.73H374.22V114.785H354.059Z" fill="#231F20"/>
<path d="M374.22 158.246H353.92C353.857 158.246 353.795 158.233 353.737 158.209C353.679 158.184 353.626 158.148 353.582 158.103C353.538 158.058 353.503 158.005 353.48 157.946C353.457 157.888 353.446 157.825 353.447 157.762L353.576 114.774C353.579 114.647 353.631 114.527 353.721 114.439C353.812 114.35 353.933 114.301 354.059 114.301H374.22C374.346 114.301 374.466 114.351 374.554 114.439C374.643 114.528 374.693 114.648 374.693 114.774V157.762C374.694 157.825 374.683 157.888 374.66 157.946C374.637 158.005 374.602 158.058 374.558 158.103C374.514 158.148 374.462 158.184 374.403 158.209C374.345 158.233 374.283 158.246 374.22 158.246ZM354.403 157.3H373.726V115.257H354.51L354.403 157.3Z" fill="#231F20"/>
<path d="M356.121 118.578L356.013 152.324H372.138V118.578H356.121Z" fill="#E1D1D1"/>
<path d="M372.138 152.808H356.035C355.971 152.809 355.908 152.797 355.849 152.773C355.79 152.749 355.736 152.713 355.691 152.668C355.645 152.622 355.608 152.566 355.584 152.505C355.56 152.444 355.549 152.379 355.552 152.313L355.648 118.578C355.651 118.449 355.704 118.326 355.797 118.236C355.889 118.145 356.013 118.095 356.142 118.095H372.159C372.287 118.095 372.41 118.146 372.501 118.236C372.591 118.327 372.642 118.45 372.642 118.578V152.324C372.642 152.389 372.629 152.454 372.603 152.514C372.578 152.574 372.54 152.629 372.493 152.674C372.446 152.719 372.39 152.754 372.329 152.777C372.268 152.8 372.203 152.811 372.138 152.808ZM356.507 151.797H371.644V119.073H356.614L356.507 151.797Z" fill="#231F20"/>
<path d="M344.634 150.433C344.634 150.433 341.607 135.967 346.148 133.699C350.689 131.432 366.298 128.777 363.882 132.324C361.467 135.87 353.007 138.063 353.007 138.063C353.007 138.063 354.747 143.125 352.836 146.714" fill="#E1D1D1"/>
<path d="M344.634 150.916C344.522 150.918 344.413 150.88 344.327 150.809C344.24 150.738 344.182 150.639 344.161 150.529C344.033 149.927 341.102 135.666 345.933 133.259C349.851 131.313 362.497 128.809 364.344 130.916C364.54 131.157 364.641 131.461 364.629 131.772C364.617 132.082 364.493 132.378 364.279 132.603C362.132 135.827 355.509 137.869 353.619 138.406C354.016 139.814 354.918 143.844 353.265 147.004C353.202 147.117 353.096 147.201 352.972 147.237C352.847 147.274 352.714 147.259 352.599 147.198C352.486 147.134 352.402 147.029 352.364 146.905C352.326 146.781 352.337 146.647 352.395 146.531C354.188 143.178 352.556 138.331 352.535 138.277C352.508 138.216 352.495 138.151 352.495 138.084C352.495 138.017 352.508 137.952 352.535 137.891C352.568 137.831 352.612 137.778 352.666 137.736C352.719 137.693 352.781 137.662 352.846 137.643C352.932 137.643 361.155 135.494 363.442 132.109C363.603 131.872 363.646 131.7 363.571 131.614C362.411 130.282 350.689 132.044 346.33 134.194C342.884 135.913 344.269 146.456 345.085 150.379C345.099 150.442 345.1 150.507 345.089 150.57C345.078 150.633 345.054 150.694 345.019 150.748C344.984 150.802 344.938 150.849 344.885 150.885C344.832 150.921 344.772 150.946 344.709 150.959L344.634 150.916Z" fill="#231F20"/>
<path d="M232.396 122.34L205.655 76.3851L175.596 109.798L186.761 133.893C186.761 133.893 169.584 174.592 169.584 254.367C169.584 254.367 261.027 253.97 284.044 253.97L253.985 207.166C253.985 207.166 261.5 185.479 265.375 180.062L287.758 192.26L313.931 156.569L232.396 122.34Z" fill="#30BFC8"/>
<path d="M232.01 166.145C246.771 174.742 250.26 139.793 250.915 132.227C251.214 130.146 251.09 128.025 250.55 125.994C249.702 123.414 247.716 121.415 245.73 119.545C243.357 117.396 240.62 115.139 237.388 114.999C235.88 115.023 234.398 115.4 233.062 116.1C231.725 116.8 230.571 117.803 229.691 119.03C227.949 121.498 226.695 124.278 225.998 127.219C222.52 139.374 222.649 152.206 229.358 163.254C229.92 164.307 230.717 165.215 231.688 165.908L232.01 166.145Z" fill="#231F20"/>
<path d="M236.422 167.972C234.774 167.921 233.17 167.431 231.774 166.553L231.441 166.349C230.405 165.618 229.556 164.653 228.961 163.533C222.81 153.399 221.629 140.814 225.547 127.122C226.259 124.123 227.538 121.289 229.315 118.772C230.238 117.48 231.451 116.426 232.858 115.694C234.265 114.962 235.824 114.573 237.41 114.559C240.716 114.698 243.518 116.891 245.998 119.234C248.016 121.093 250.056 123.146 250.947 125.843C251.501 127.946 251.633 130.138 251.333 132.291C250.335 143.565 247.469 163.092 239.525 167.209C238.567 167.71 237.503 167.972 236.422 167.972ZM237.088 115.504C235.702 115.574 234.35 115.956 233.132 116.623C231.915 117.289 230.863 118.222 230.056 119.352C228.358 121.774 227.137 124.499 226.46 127.38C222.606 140.814 223.755 153.173 229.766 163.039C230.28 164.028 231.015 164.885 231.913 165.543L232.225 165.726C234.78 167.219 237.034 167.424 239.106 166.349C244.624 163.49 248.768 151.045 250.421 132.184C250.707 130.164 250.591 128.108 250.077 126.133C249.262 123.651 247.319 121.706 245.386 119.921C242.981 117.708 240.351 115.623 237.345 115.504H237.088Z" fill="#231F20"/>
<path d="M276.057 100.609C277.42 105.563 275.187 111.872 271.838 115.537C269.605 117.955 264.71 118.6 263.722 114.666C263.106 112.076 263.013 109.389 263.45 106.762C263.887 104.136 264.845 101.623 266.266 99.3731C268.413 95.8373 272.525 93.8169 275.166 98.3629C275.559 99.0699 275.858 99.8249 276.057 100.609Z" fill="#231F20"/>
<path d="M267.393 117.955C266.981 117.957 266.571 117.911 266.17 117.815C265.449 117.632 264.794 117.249 264.28 116.712C263.766 116.174 263.412 115.502 263.26 114.774C262.629 112.128 262.53 109.383 262.969 106.698C263.408 104.014 264.375 101.443 265.815 99.1367C267.318 96.7186 269.444 95.257 271.43 95.2678C272.557 95.2678 274.178 95.7944 275.531 98.1372C275.957 98.8772 276.289 99.6679 276.518 100.491C278 105.864 275.445 112.313 272.224 115.859C271.602 116.517 270.853 117.042 270.023 117.402C269.193 117.762 268.298 117.95 267.393 117.955ZM271.376 96.2135C269.744 96.2135 267.93 97.5139 266.621 99.6203C265.243 101.821 264.318 104.275 263.9 106.838C263.481 109.402 263.578 112.023 264.184 114.548C264.292 115.11 264.559 115.63 264.953 116.045C265.346 116.46 265.851 116.753 266.406 116.891C267.325 117.06 268.271 116.995 269.159 116.702C270.046 116.409 270.846 115.898 271.484 115.214C274.511 111.926 276.98 105.725 275.606 100.738C275.403 99.9861 275.103 99.2637 274.715 98.5886C273.802 97.0195 272.697 96.2135 271.419 96.2027L271.376 96.2135Z" fill="#231F20"/>
<path d="M253.03 122.78C250.883 131.023 248.736 149.798 235.048 139.976C233.646 138.873 232.422 137.561 231.42 136.085C224.678 127.09 226.599 121.415 230.088 111.539C231.591 107.24 232.89 102.941 234.383 98.6424C235.875 94.3435 238.333 90.3026 240.373 86.2295C240.298 86.3692 247.082 87.3042 253.867 84.2198C260.652 81.1354 266.266 77.9327 266.266 77.9327C268.102 80.684 270.088 82.7689 271.065 86.036C271.966 89.2054 272.225 92.5233 271.827 95.7944C270.968 103.822 267.758 112.506 264.119 119.674C260.48 126.843 253.03 122.78 253.03 122.78Z" fill="#E1D1D1"/>
<path d="M241.962 143.275C239.815 143.275 237.421 142.308 234.758 140.395C233.316 139.261 232.056 137.913 231.022 136.397C224.077 127.122 226.17 121.201 229.627 111.399C230.346 109.336 231.033 107.219 231.699 105.177C232.418 102.974 233.159 100.706 233.953 98.4813C235.152 95.3652 236.569 92.3377 238.194 89.4215C238.795 88.2823 239.396 87.1431 239.965 86.0039C239.993 85.9464 240.033 85.8951 240.081 85.853C240.13 85.811 240.186 85.779 240.247 85.759C240.308 85.739 240.373 85.7313 240.436 85.7365C240.5 85.7416 240.563 85.7595 240.62 85.789C245.07 86.3129 249.579 85.6144 253.663 83.7685C260.34 80.7056 265.966 77.5245 266.019 77.4922C266.129 77.4335 266.257 77.4175 266.378 77.4472C266.499 77.477 266.604 77.5504 266.674 77.6534C267.136 78.3413 267.597 78.9861 268.059 79.6202C269.581 81.4815 270.759 83.5996 271.537 85.875C272.453 89.1115 272.719 92.4974 272.321 95.8375C271.537 103.027 268.789 111.571 264.559 119.879C264.117 120.865 263.476 121.75 262.676 122.477C261.876 123.204 260.935 123.757 259.911 124.102C257.714 124.661 255.393 124.453 253.33 123.511C253.116 124.36 252.89 125.317 252.665 126.316C251.248 132.474 249.315 140.921 244.195 142.856C243.481 143.127 242.725 143.269 241.962 143.275ZM240.673 86.7777C240.158 87.8524 239.6 88.8411 239.063 89.8729C237.46 92.7516 236.061 95.7395 234.876 98.8144C234.093 100.964 233.352 103.285 232.633 105.478C231.913 107.67 231.28 109.647 230.55 111.722C227.082 121.545 225.182 126.95 231.817 135.806C232.791 137.242 233.978 138.522 235.338 139.6C238.709 142.028 241.586 142.824 243.926 141.942C248.553 140.191 250.367 132.055 251.784 126.112C252.074 124.865 252.332 123.694 252.6 122.694C252.621 122.623 252.657 122.558 252.705 122.502C252.754 122.447 252.814 122.403 252.882 122.373C252.949 122.343 253.023 122.329 253.096 122.33C253.17 122.332 253.243 122.35 253.309 122.383C255.294 123.405 257.578 123.683 259.75 123.167C260.645 122.861 261.466 122.373 262.163 121.733C262.86 121.093 263.416 120.315 263.797 119.449C267.973 111.238 270.7 102.812 271.462 95.7408C271.85 92.5342 271.595 89.2823 270.711 86.1759C269.949 84.0035 268.807 81.9839 267.34 80.2112C266.953 79.6846 266.556 79.1365 266.18 78.5884C264.774 79.3622 259.836 82.0597 254.135 84.6713C249.918 86.5701 245.268 87.2977 240.673 86.7777Z" fill="#231F20"/>
<path d="M250.775 130.755C250.775 130.755 244.13 129.239 241.114 123.705C238.097 118.17 239.922 113.925 239.922 113.925C239.922 113.925 245.719 120.642 253.051 122.813L250.775 130.755Z" fill="#231F20"/>
<path d="M250.775 131.227H250.668C250.389 131.163 243.776 129.605 240.684 123.952C237.592 118.299 239.385 113.935 239.46 113.753C239.492 113.679 239.543 113.614 239.607 113.566C239.67 113.517 239.746 113.485 239.825 113.473C239.904 113.462 239.984 113.47 240.058 113.496C240.133 113.522 240.2 113.566 240.255 113.624C240.255 113.688 246.062 120.265 253.137 122.372C253.197 122.389 253.253 122.418 253.302 122.457C253.351 122.496 253.392 122.545 253.421 122.6C253.451 122.655 253.47 122.715 253.477 122.778C253.483 122.84 253.477 122.903 253.459 122.963L251.237 130.883C251.208 130.984 251.148 131.072 251.064 131.134C250.981 131.196 250.879 131.229 250.775 131.227ZM240.104 114.86C239.48 117.801 239.982 120.869 241.511 123.457C243.969 127.95 248.95 129.712 250.442 130.153L252.45 123.113C246.513 121.211 241.704 116.547 240.104 114.86Z" fill="#231F20"/>
<path d="M254.844 109.239C253.492 109.134 252.181 108.723 251.011 108.035C250.902 107.973 250.822 107.869 250.788 107.747C250.755 107.625 250.772 107.495 250.834 107.385C250.897 107.275 251.001 107.195 251.122 107.162C251.244 107.129 251.374 107.145 251.484 107.208C252.31 107.681 254.704 108.755 255.778 108.057C256.476 107.605 255.713 103.188 254.103 98.3844C254.063 98.2647 254.073 98.1341 254.129 98.0212C254.185 97.9083 254.284 97.8225 254.404 97.7826C254.523 97.7427 254.654 97.752 254.767 97.8084C254.879 97.8648 254.965 97.9638 255.005 98.0835C255.971 100.953 258.022 107.756 256.282 108.831C255.851 109.1 255.352 109.242 254.844 109.239Z" fill="#231F20"/>
<path d="M252.879 115.064C251.765 115.081 250.663 114.838 249.659 114.355C246.975 113.022 245.365 109.894 244.806 105.058C244.794 104.933 244.831 104.808 244.909 104.71C244.987 104.612 245.101 104.548 245.225 104.532C245.287 104.524 245.35 104.529 245.41 104.546C245.471 104.563 245.527 104.592 245.576 104.631C245.625 104.67 245.665 104.719 245.695 104.773C245.726 104.828 245.744 104.889 245.751 104.951C246.256 109.443 247.705 112.323 250.045 113.549C253.62 115.322 258.183 112.635 258.226 112.613C258.279 112.58 258.338 112.558 258.4 112.549C258.462 112.539 258.526 112.541 258.587 112.556C258.648 112.572 258.705 112.599 258.756 112.636C258.806 112.673 258.848 112.721 258.88 112.775C258.944 112.883 258.963 113.013 258.933 113.135C258.903 113.258 258.826 113.364 258.719 113.43C256.93 114.432 254.928 114.992 252.879 115.064Z" fill="#231F20"/>
<path d="M253.384 93.6128C253.264 93.613 253.149 93.5677 253.061 93.4858C252.973 93.404 252.92 93.2919 252.912 93.1721C252.836 92.0974 252.525 91.4419 251.967 91.1624C250.893 90.6036 248.886 91.6138 248.22 92.0544C248.115 92.1243 247.986 92.1493 247.862 92.1241C247.739 92.099 247.63 92.0256 247.56 91.9201C247.49 91.8146 247.465 91.6858 247.49 91.5618C247.516 91.4379 247.589 91.329 247.694 91.2591C247.812 91.1839 250.561 89.3999 252.386 90.3134C252.861 90.6015 253.249 91.0138 253.508 91.5061C253.768 91.9984 253.888 92.5521 253.856 93.1076C253.861 93.1698 253.853 93.2322 253.833 93.2912C253.813 93.3503 253.782 93.4048 253.741 93.4518C253.7 93.4987 253.65 93.5371 253.595 93.5647C253.539 93.5923 253.478 93.6087 253.416 93.6128H253.384Z" fill="#231F20"/>
<path d="M265.289 98.9432C265.171 98.9437 265.057 98.8998 264.97 98.8202C264.882 98.7407 264.828 98.6311 264.817 98.5133C264.817 98.5133 264.602 96.149 263.26 95.2892C262.101 94.5262 260.748 96.2672 260.738 96.2887C260.7 96.3383 260.652 96.38 260.598 96.4112C260.544 96.4424 260.485 96.4626 260.423 96.4706C260.361 96.4786 260.298 96.4742 260.238 96.4578C260.178 96.4413 260.121 96.413 260.072 96.3747C260.022 96.3375 259.979 96.2907 259.947 96.237C259.915 96.1833 259.894 96.1237 259.885 96.0617C259.876 95.9997 259.879 95.9366 259.895 95.8759C259.91 95.8152 259.938 95.7583 259.975 95.7083C260.63 94.8486 262.262 93.4944 263.786 94.4939C265.515 95.6331 265.751 98.3414 265.762 98.4488C265.768 98.511 265.761 98.5737 265.743 98.6333C265.724 98.693 265.694 98.7484 265.654 98.7963C265.614 98.8443 265.565 98.8839 265.51 98.9128C265.455 98.9417 265.394 98.9593 265.332 98.9647L265.289 98.9432Z" fill="#231F20"/>
<path d="M227.533 96.3425C227.365 98.0553 227.662 99.7819 228.392 101.34C229.917 104.166 233.674 105.316 236.744 104.403C244.763 102.028 248.617 86.7561 242.552 80.7592C236.916 75.1922 230.518 83.9833 229.197 89.1742C228.585 91.6137 227.619 93.8706 227.533 96.3425Z" fill="#231F20"/>
<path d="M234.597 105.187C233.272 105.222 231.962 104.905 230.798 104.269C229.635 103.633 228.66 102.7 227.974 101.566C227.191 99.9353 226.875 98.12 227.061 96.321C227.209 94.5222 227.569 92.7472 228.135 91.0335C228.328 90.3779 228.521 89.7223 228.693 89.0667C229.627 85.4557 233.094 79.8565 237.184 78.7281C238.192 78.4607 239.254 78.4778 240.253 78.7775C241.251 79.0773 242.147 79.6478 242.842 80.4261C245.773 83.3171 246.728 88.5509 245.343 94.0856C243.958 99.6204 240.706 103.758 236.841 104.833C236.113 105.053 235.358 105.172 234.597 105.187ZM228.006 96.364C227.835 97.9948 228.114 99.6413 228.811 101.125C229.62 102.39 230.823 103.353 232.234 103.864C233.645 104.375 235.185 104.406 236.615 103.951C240.169 102.877 243.175 99.0293 244.463 93.8599C245.751 88.6906 244.903 83.7577 242.219 81.1032C241.644 80.4398 240.895 79.9504 240.056 79.6903C239.218 79.4302 238.324 79.4096 237.474 79.6308C233.781 80.7055 230.507 86.0038 229.648 89.3032C229.476 89.9695 229.283 90.6358 229.09 91.3021C228.533 92.941 228.173 94.6401 228.016 96.364H228.006Z" fill="#231F20"/>
<path d="M272.117 105.789C271.916 105.79 271.719 105.734 271.548 105.628C271.307 105.479 271.134 105.241 271.068 104.965C271.001 104.689 271.047 104.398 271.194 104.156C271.312 103.962 283.217 84.3595 285.257 72.1401C285.998 67.7123 284.033 63.22 279.728 59.4692C273.845 54.3536 265.064 52.0645 258.848 54.0312C247.791 57.5348 241.908 83.0483 241.844 83.2633C241.78 83.539 241.609 83.7782 241.37 83.9292C241.131 84.0801 240.842 84.1304 240.566 84.0693C240.289 84.0076 240.047 83.8384 239.894 83.5986C239.741 83.3589 239.689 83.0683 239.75 82.7904C239.997 81.7157 245.977 55.8475 258.204 51.9785C265.193 49.7754 274.618 52.1827 281.135 57.8464C286.03 62.1453 288.252 67.3039 287.383 72.4947C285.236 85.1333 273.523 104.457 273.03 105.273C272.934 105.43 272.8 105.56 272.64 105.65C272.481 105.741 272.3 105.788 272.117 105.789Z" fill="#231F20"/>
<path d="M330.324 258C326.475 257.987 322.653 257.367 318.998 256.162C314.641 254.615 310.611 252.268 307.114 249.241C301.156 244.416 295.906 238.655 290.829 233.121C287.608 229.585 284.28 225.931 280.802 222.556C269.906 211.981 259.084 206.35 248.596 205.834C234.49 205.124 221.983 213.196 210.582 222.019C209.509 222.879 208.349 223.771 207.212 224.673C197.99 231.992 187.534 240.278 174.651 238.333C165.87 237.011 159.053 230.95 154.888 226.103C144.636 214.163 139.858 197.086 142.231 180.524C144.743 162.684 154.673 150.11 171.753 143.146C185.891 137.386 199.235 129.325 212.15 121.534L212.257 121.48C220.255 116.644 228.746 110.454 231.033 101.168C231.067 101.026 231.157 100.902 231.281 100.826C231.406 100.749 231.556 100.725 231.699 100.76C231.841 100.794 231.964 100.883 232.041 101.008C232.117 101.133 232.141 101.283 232.107 101.426C229.723 111.098 221.028 117.45 212.837 122.394L212.74 122.458C199.793 130.271 186.407 138.353 172.193 144.146C155.489 150.948 145.784 163.232 143.326 180.686C141.029 196.935 145.666 213.647 155.693 225.35C159.74 230.068 166.342 235.958 174.802 237.226C187.222 239.107 197.045 231.315 206.535 223.792L209.917 221.127C221.489 212.175 234.189 203.985 248.639 204.716C259.374 205.253 270.432 210.982 281.521 221.739C285.021 225.146 288.36 228.811 291.591 232.358C296.636 237.903 301.854 243.631 307.758 248.403C311.151 251.345 315.061 253.63 319.288 255.141C333.791 259.827 348.273 255.217 362.433 241.428C383.442 220.923 395.283 189.842 394.907 156.053C394.735 140.277 391.794 127.95 385.911 118.353C383.539 114.473 380.543 110.153 375.67 107.992C373.179 106.918 367.339 106.509 365.085 109.68C364.226 110.894 364.14 112.324 364.011 114.14C364.011 114.924 363.904 115.806 363.786 116.762C363.767 116.905 363.693 117.034 363.579 117.122C363.465 117.209 363.321 117.248 363.179 117.23C363.037 117.211 362.908 117.137 362.82 117.023C362.732 116.909 362.694 116.765 362.712 116.622C362.841 115.698 362.884 114.871 362.938 114.075C363.056 112.162 363.163 110.518 364.204 109.056C366.824 105.37 373.243 105.757 376.099 107.014C381.295 109.293 384.354 113.774 386.834 117.762C392.825 127.531 395.809 140.04 395.991 156.021C396.367 190.068 384.419 221.471 363.195 242.17C352.438 252.713 341.413 257.989 330.324 258Z" fill="#231F20"/>
<path d="M226.546 21.1345C226.469 21.1338 226.393 21.1172 226.323 21.0858C226.253 21.0544 226.19 21.0087 226.138 20.9518C226.039 20.8495 225.983 20.7127 225.983 20.5703C225.983 20.4279 226.039 20.291 226.138 20.1888C228.5 18.1361 230.84 17.2333 233.105 17.4912C235.028 17.7543 236.774 18.7517 237.979 20.2747C238.06 20.391 238.094 20.5344 238.072 20.6748C238.05 20.8151 237.974 20.9414 237.861 21.027C237.804 21.0688 237.739 21.0989 237.67 21.1156C237.602 21.1322 237.53 21.1352 237.46 21.1242C237.391 21.1132 237.324 21.0885 237.263 21.0516C237.203 21.0146 237.151 20.9661 237.109 20.9088C236.082 19.6262 234.611 18.7782 232.987 18.5337C231.033 18.308 228.972 19.1355 226.846 20.984C226.765 21.0658 226.66 21.1186 226.546 21.1345Z" fill="#231F20"/>
<path d="M258.526 195.13C258.452 195.145 258.375 195.145 258.301 195.13C258.186 195.068 258.099 194.964 258.059 194.84C258.019 194.716 258.029 194.581 258.086 194.463L271.634 167.273C271.692 167.158 271.794 167.07 271.917 167.03C272.04 166.99 272.173 167 272.289 167.058C272.404 167.117 272.491 167.219 272.532 167.342C272.572 167.465 272.562 167.599 272.503 167.714L258.966 194.861C258.926 194.943 258.863 195.012 258.785 195.059C258.707 195.107 258.617 195.131 258.526 195.13Z" fill="#231F20"/>
<path d="M233.288 200.428C217.775 200.428 199.547 195.398 198.537 195.119C198.468 195.109 198.401 195.085 198.341 195.048C198.282 195.01 198.231 194.96 198.192 194.902C198.153 194.843 198.128 194.777 198.117 194.707C198.105 194.638 198.109 194.567 198.128 194.499C198.146 194.431 198.179 194.368 198.224 194.314C198.269 194.26 198.324 194.216 198.388 194.185C198.451 194.154 198.52 194.137 198.59 194.135C198.66 194.133 198.73 194.146 198.795 194.173C199.128 194.259 231.677 203.254 246.728 197.505C246.851 197.459 246.986 197.465 247.105 197.519C247.223 197.573 247.316 197.673 247.361 197.795C247.385 197.854 247.397 197.917 247.396 197.981C247.395 198.045 247.381 198.108 247.355 198.166C247.329 198.224 247.291 198.277 247.244 198.32C247.198 198.363 247.142 198.397 247.082 198.418C242.638 199.895 237.968 200.575 233.288 200.428Z" fill="#231F20"/>
<path d="M364.881 111.775H362.54V115.257H364.881V111.775Z" fill="#231F20"/>
<path d="M364.881 115.73H362.54C362.414 115.73 362.293 115.681 362.202 115.592C362.112 115.504 362.06 115.384 362.057 115.257V111.775C362.057 111.712 362.07 111.65 362.094 111.592C362.119 111.534 362.154 111.481 362.199 111.437C362.244 111.393 362.298 111.358 362.356 111.335C362.415 111.312 362.477 111.301 362.54 111.302H364.881C365.006 111.302 365.126 111.352 365.215 111.441C365.303 111.529 365.353 111.65 365.353 111.775V115.257C365.353 115.383 365.303 115.503 365.215 115.592C365.126 115.68 365.006 115.73 364.881 115.73ZM363.013 114.774H364.408V112.248H363.013V114.774Z" fill="#231F20"/>
<path d="M236.905 101.63L236.132 100.878C238.516 98.5031 240.072 95.4224 240.569 92.0927C241.066 88.763 240.478 85.3616 238.891 82.3929L239.815 81.8448C241.517 85.0181 242.153 88.6558 241.629 92.2193C241.105 95.7829 239.449 99.0827 236.905 101.63Z" fill="#E1D1D1"/>
<path d="M272.332 115.73L271.333 115.333C274.468 107.24 273.674 101.265 273.674 101.211L274.747 101.06C274.769 101.286 275.574 107.347 272.332 115.73Z" fill="#E1D1D1"/>
<path d="M193.446 63.3196L185.668 71.2786L186.436 72.0301L194.213 64.0711L193.446 63.3196Z" fill="#E1D1D1"/>
<path d="M326.746 174.827L326.274 175.792L334.536 179.842L335.008 178.877L326.746 174.827Z" fill="#E1D1D1"/>
<path d="M111.442 122.06C110.991 121.953 110.508 121.878 110.068 121.727C109.377 121.556 108.742 121.207 108.226 120.715C107.71 120.223 107.331 119.605 107.126 118.922C106.979 118.328 106.96 117.709 107.071 117.106C107.182 116.504 107.421 115.932 107.771 115.429C108.356 114.54 109.117 113.78 110.007 113.196C110.897 112.612 111.897 112.216 112.945 112.033C114.33 111.722 114.952 111.797 117.153 112.334V86.4553L142.574 81.3612V81.9415C142.574 92.3017 142.574 102.651 142.574 113.011C142.606 113.823 142.454 114.632 142.129 115.377C141.803 116.121 141.313 116.783 140.696 117.31C139.687 118.289 138.437 118.982 137.074 119.318C135.71 119.655 134.281 119.622 132.934 119.223C132.237 119.068 131.595 118.726 131.077 118.234C130.559 117.742 130.184 117.118 129.993 116.429C129.837 115.838 129.813 115.219 129.922 114.617C130.031 114.016 130.272 113.445 130.626 112.947C131.211 112.053 131.975 111.289 132.869 110.705C133.763 110.12 134.769 109.727 135.822 109.551C137.21 109.247 138.657 109.351 139.987 109.852V92.0546L138.184 92.4092C132.136 93.6272 126.099 94.8345 120.073 96.031C119.74 96.0954 119.687 96.2244 119.687 96.5253C119.687 102.823 119.687 109.11 119.687 115.397C119.718 116.361 119.508 117.318 119.074 118.18C118.641 119.042 117.999 119.781 117.207 120.33C116.022 121.227 114.623 121.798 113.149 121.985C113.072 122.005 112.997 122.03 112.924 122.06H111.442Z" fill="white"/>
<path d="M318.15 44.6382C318.372 44.5383 318.587 44.4234 318.794 44.2943C319.113 44.119 319.38 43.8628 319.568 43.5516C319.756 43.2403 319.86 42.8849 319.868 42.521C319.866 42.207 319.797 41.8971 319.663 41.613C319.53 41.329 319.336 41.0776 319.095 40.8767C318.689 40.5164 318.214 40.2429 317.699 40.0729C317.184 39.9029 316.64 39.8399 316.099 39.888C315.367 39.9138 314.658 40.1529 314.06 40.5758L310.678 27.7653L297.399 28.5605L297.474 28.8292C298.816 33.9556 300.179 39.0819 301.521 44.219C301.61 44.624 301.79 45.0036 302.046 45.3293C302.303 45.6549 302.63 45.9184 303.002 46.0998C303.63 46.4499 304.339 46.6274 305.058 46.6142C305.776 46.601 306.478 46.3975 307.093 46.0245C307.414 45.8554 307.684 45.6022 307.873 45.2918C308.062 44.9814 308.163 44.6255 308.166 44.262C308.166 43.9489 308.098 43.6395 307.967 43.3555C307.835 43.0715 307.643 42.8197 307.404 42.6177C306.994 42.253 306.514 41.9762 305.994 41.8043C305.473 41.6324 304.923 41.5691 304.377 41.6182C303.652 41.6482 302.951 41.8871 302.358 42.3061L300.104 33.5794L301.049 33.5149L310.485 32.9453C310.657 32.9453 310.7 32.9453 310.743 33.1388C311.558 36.2447 312.396 39.3614 313.19 42.478C313.295 42.9648 313.522 43.4171 313.848 43.7929C314.175 44.1687 314.591 44.4557 315.058 44.6274C315.765 44.9163 316.534 45.0163 317.291 44.9176H317.409L318.15 44.6382Z" fill="white"/>
<path d="M369.797 219.687C369.797 219.482 369.797 219.278 369.797 219.074C369.731 218.51 369.52 217.974 369.185 217.516C368.641 216.721 367.935 216.051 367.114 215.549C366.292 215.022 365.378 214.657 364.419 214.474C363.809 214.356 363.182 214.356 362.572 214.474H362.411C362.406 214.403 362.406 214.331 362.411 214.259C362.519 213.84 362.626 213.432 362.744 213.034L364.891 205.511C365.675 202.781 366.469 200.052 367.253 197.322V197.161L366.502 197.096C364.445 196.986 362.391 197.354 360.501 198.171C358.733 198.902 357.258 200.198 356.303 201.857C356.035 202.33 355.831 202.835 355.605 203.34C355.455 203.663 355.337 204.007 355.197 204.34C355.191 204.386 355.191 204.433 355.197 204.479L355.466 204.318C356.318 203.758 357.212 203.262 358.139 202.835C359.569 202.191 361.137 201.911 362.701 202.018C363.375 202.084 364.039 202.232 364.677 202.459C364.672 202.513 364.672 202.567 364.677 202.62C363.374 207.148 362.082 211.673 360.801 216.194C360.785 216.275 360.785 216.359 360.801 216.441C360.893 217.24 361.23 217.992 361.767 218.59C362.447 219.421 363.306 220.086 364.279 220.536L365.117 220.901L365.89 221.127H366.104C366.742 221.256 367.399 221.256 368.037 221.127C368.574 221.051 369.065 220.784 369.422 220.374C369.538 220.212 369.645 220.043 369.744 219.869L369.797 219.687Z" fill="white"/>
<path d="M107.159 222.051C107.159 221.793 107.159 221.525 107.277 221.267C107.465 220.557 107.835 219.908 108.35 219.386C109.217 218.481 110.262 217.767 111.421 217.29C112.58 216.78 113.826 216.499 115.092 216.463C115.899 216.438 116.704 216.566 117.465 216.839L117.669 216.914C117.674 216.821 117.674 216.728 117.669 216.635C117.669 216.086 117.561 215.56 117.497 215.001C117.089 211.612 116.677 208.234 116.262 204.867C115.811 201.191 115.35 197.526 114.899 193.862V193.647C115.232 193.647 115.564 193.647 115.876 193.722C118.545 193.988 121.116 194.867 123.39 196.29C125.504 197.593 127.131 199.558 128.017 201.879C128.252 202.548 128.449 203.23 128.608 203.921C128.737 204.372 128.822 204.834 128.93 205.296C128.946 205.356 128.946 205.419 128.93 205.479L128.619 205.21C127.636 204.317 126.588 203.498 125.484 202.76C123.784 201.641 121.832 200.965 119.805 200.793C118.925 200.736 118.042 200.786 117.175 200.944C117.18 201.012 117.18 201.08 117.175 201.148C117.89 207.224 118.624 213.314 119.375 219.418C119.397 219.521 119.397 219.627 119.375 219.73C119.101 220.756 118.512 221.669 117.69 222.341C116.65 223.273 115.408 223.95 114.061 224.319C113.686 224.437 113.299 224.523 112.924 224.62L111.85 224.749H111.678C110.833 224.802 109.986 224.685 109.188 224.405C108.518 224.204 107.945 223.764 107.577 223.169C107.453 222.937 107.345 222.696 107.255 222.449L107.159 222.051Z" fill="white"/>
<path d="M327.94 90.378C328.08 90.0985 328.198 89.8084 328.359 89.5504C328.86 88.8202 329.54 88.2316 330.334 87.8416C331.67 87.1618 333.132 86.7666 334.629 86.681C336.136 86.5616 337.652 86.7331 339.094 87.1861C340.02 87.4717 340.88 87.9353 341.628 88.551L341.832 88.7122C341.884 88.6123 341.927 88.508 341.961 88.4005C342.122 87.7664 342.272 87.1323 342.412 86.4875L344.988 74.5583C345.911 70.2594 346.831 65.9391 347.747 61.5973L347.801 61.3394C348.176 61.5006 348.531 61.6403 348.874 61.8015C351.773 63.1526 354.322 65.153 356.325 67.6479C358.21 69.9484 359.282 72.809 359.373 75.7834C359.373 76.6269 359.33 77.4699 359.245 78.309C359.245 78.8786 359.126 79.3837 359.062 79.9963C359.055 80.0648 359.033 80.1309 358.998 80.1897L358.74 79.7706C357.984 78.3779 357.122 77.0449 356.163 75.7834C354.685 73.846 352.743 72.3122 350.517 71.3234C349.548 70.9122 348.531 70.6268 347.489 70.4744C347.489 70.4744 347.489 70.4744 347.414 70.4744C347.403 70.558 347.385 70.6406 347.361 70.7215L342.723 92.1512C342.698 92.2768 342.651 92.3969 342.583 92.5059C341.872 93.5549 340.851 94.3553 339.663 94.795C338.121 95.4307 336.454 95.7064 334.79 95.601C334.317 95.601 333.856 95.5366 333.383 95.4936L332.149 95.2356L331.945 95.1497C330.971 94.8792 330.062 94.415 329.272 93.7848C328.6 93.2868 328.124 92.5676 327.93 91.7536C327.888 91.4435 327.863 91.1314 327.855 90.8186L327.94 90.378Z" fill="white"/>
<path d="M138.699 139.32C133.17 139.32 133.16 147.918 138.699 147.918C144.238 147.918 144.238 139.32 138.699 139.32Z" fill="white"/>
<path d="M334.822 121.867C334.719 121.511 334.531 121.187 334.274 120.921L333.834 120.588C333.509 120.395 333.139 120.291 332.761 120.287H332.159C331.871 120.274 331.585 120.341 331.333 120.48C331.065 120.561 330.823 120.713 330.635 120.921C330.434 121.11 330.283 121.347 330.195 121.609C330.06 121.863 329.997 122.149 330.012 122.436L330.088 123.017C330.188 123.373 330.376 123.698 330.635 123.962L331.075 124.296C331.401 124.485 331.772 124.585 332.149 124.586H332.75C333.037 124.602 333.323 124.539 333.576 124.403C333.841 124.315 334.081 124.164 334.274 123.962C334.653 123.542 334.873 123.002 334.897 122.436C334.875 122.254 334.843 122.06 334.822 121.867Z" fill="white"/>
<path d="M155.628 34.418C152.172 34.418 152.161 39.7915 155.628 39.7915C159.096 39.7915 159.085 34.418 155.628 34.418Z" fill="white"/>
<path d="M312.804 223.803C309.347 223.803 309.347 229.176 312.804 229.176C316.261 229.176 316.261 223.803 312.804 223.803Z" fill="white"/>
<path d="M0 360V264.182C29.9713 274.965 59.9426 285.748 90.6667 281.429C121.391 277.11 152.868 257.69 184.333 248.851C215.799 240.011 247.254 241.754 284.333 250.288C321.413 258.822 364.118 274.148 397.667 277.596C431.215 281.044 455.608 272.613 480 264.182V360H0Z" fill="url(#paint0_linear_15_4)"/>
<defs>
<linearGradient id="paint0_linear_15_4" x1="240" y1="243" x2="240" y2="360" gradientUnits="userSpaceOnUse">
<stop stop-color="#ED4444"/>
<stop offset="1" stop-color="#920404"/>
</linearGradient>
</defs>
</svg>
