<svg width="540" height="500" viewBox="0 0 540 500" fill="none" xmlns="http://www.w3.org/2000/svg">
<path d="M0 394.345V222.758C33.7177 242.067 67.4354 261.377 102 253.643C136.565 245.91 171.976 211.132 207.375 195.304C242.774 179.475 278.16 182.595 319.875 197.877C361.59 213.16 409.633 240.606 447.375 246.78C485.117 252.954 512.559 237.856 540 222.758V394.345H0Z" fill="#FF6666"/>
<path d="M290.106 13.1366C289.86 10.0099 273.974 19.1058 273.974 19.1058C273.974 19.1058 287.43 10.0099 286.277 7.73595C285.123 5.46198 269.96 15.4106 269.96 15.4106C269.96 15.4106 283.801 6.03047 281.663 4.02722C279.526 2.02396 264.747 12.5681 264.747 12.5681C264.747 12.5681 279.818 0.900511 274.066 0.616265C271.483 0.494446 251.198 12.6358 229.222 27.2136C235.374 33.9813 241.525 40.519 248.169 46.8401C255.212 40.4242 260.764 35.3213 261.517 34.4686C263.778 31.9104 286.231 33.6159 286.323 30.4892C286.415 27.3625 271.529 25.9412 271.529 25.9412C271.529 25.9412 290.352 16.2633 290.106 13.1366Z" fill="#E1D1D1"/>
<path d="M248.076 47.4492C247.981 47.4507 247.887 47.4346 247.8 47.402C247.712 47.3693 247.634 47.3208 247.569 47.2597C241.664 41.6289 235.635 35.389 228.576 27.5926C228.518 27.5286 228.474 27.455 228.447 27.376C228.421 27.297 228.412 27.2142 228.423 27.1324C228.453 26.9672 228.551 26.8177 228.699 26.7128C244.955 15.8844 270.329 0.00718196 273.959 0.00718196C274.354 -0.0258005 274.751 0.0554129 275.09 0.238554C275.428 0.421694 275.69 0.696813 275.835 1.02235C276.327 2.24054 274.604 4.48744 272.344 6.74787C276.558 4.27087 280.771 2.36236 282.094 3.60763C282.248 3.75326 282.364 3.92702 282.433 4.11653C282.502 4.30604 282.523 4.50662 282.494 4.70401C282.386 5.81392 280.956 7.41111 279.049 9.18427C281.94 7.68182 284.647 6.54484 285.892 6.82908C286.092 6.86358 286.28 6.9392 286.44 7.04976C286.601 7.16032 286.729 7.30269 286.815 7.46525C287.569 8.88648 284.677 11.7831 281.31 14.5037C284.924 12.7983 288.584 11.4176 289.983 12.0403C290.21 12.1377 290.402 12.2872 290.54 12.4731C290.678 12.6589 290.757 12.8742 290.767 13.096V13.096C290.998 16.0197 278.772 22.7875 273.528 25.5487C278.326 26.1307 286.953 27.579 286.877 30.5027C286.877 32.6278 281.786 32.9797 273.559 33.3587C268.761 33.5888 262.794 33.8731 261.933 34.8476C261.071 35.8222 256.858 39.6933 248.538 47.2732C248.411 47.3766 248.249 47.4387 248.076 47.4492ZM230.13 27.3219C236.758 34.631 242.433 40.5731 248.092 45.9332C257.842 37.0539 260.395 34.5904 260.871 34.0896C262.04 32.7361 266.438 32.4654 273.528 32.127C277.711 31.9239 285.493 31.5585 285.523 30.4756C285.523 28.892 278.203 27.2136 271.36 26.5503C271.214 26.5356 271.077 26.4804 270.969 26.3928C270.862 26.3052 270.788 26.1897 270.76 26.0631C270.729 25.9367 270.743 25.8049 270.801 25.6861C270.859 25.5672 270.957 25.4672 271.083 25.3998C280.202 20.7436 289.537 14.8963 289.414 13.2179C288.461 12.6358 281.571 15.6001 274.358 19.7284C274.206 19.7984 274.029 19.8168 273.862 19.7805C273.695 19.7441 273.549 19.6553 273.451 19.5308C273.353 19.4063 273.309 19.2546 273.329 19.1041C273.349 18.9536 273.431 18.8146 273.559 18.7133C280.494 14.03 286.123 9.06244 285.6 8.08789C284.57 7.64122 277.557 11.2552 270.36 16.0062C270.211 16.1067 270.023 16.151 269.837 16.1295C269.651 16.1079 269.482 16.0221 269.368 15.8911C269.254 15.7601 269.204 15.5945 269.228 15.4308C269.253 15.267 269.35 15.1186 269.499 15.0181C273.912 12.0132 280.971 6.55837 281.156 4.70401C281.156 4.62279 281.156 4.56865 281.156 4.55512C280.295 3.71592 272.651 7.81718 265.147 13.1502C265 13.2476 264.816 13.292 264.633 13.2744C264.45 13.2568 264.282 13.1785 264.162 13.0554C264.098 12.9999 264.046 12.9336 264.011 12.8604C263.976 12.7872 263.958 12.7085 263.958 12.6291C263.958 12.5496 263.976 12.4709 264.011 12.3977C264.046 12.3245 264.098 12.2582 264.162 12.2027C269.53 8.03375 275.02 2.72782 274.528 1.52316C274.528 1.40134 274.174 1.3472 273.897 1.33366C271.79 1.23891 254.551 11.1605 230.13 27.3219Z" fill="#231F20"/>
<path d="M169.953 73.6677C165.432 86.2422 192.744 144.323 192.744 144.323L226.577 107.52C225.824 106.383 208.723 80.2053 208.723 80.2053C208.723 80.2053 233.959 59.6449 248.03 46.8403C241.418 40.5192 235.174 33.9274 229.084 27.2137C202.079 45.1348 172.445 66.7375 169.953 73.6677Z" fill="#231F20"/>
<path d="M192.744 144.918H192.575C192.459 144.904 192.349 144.862 192.258 144.798C192.166 144.734 192.095 144.649 192.052 144.553C190.93 142.184 164.694 86.147 169.246 73.5048C171.814 66.3716 201.541 44.6742 228.653 26.7531C228.793 26.6582 228.969 26.615 229.144 26.6327C229.319 26.6504 229.48 26.7276 229.591 26.8479C236.619 34.6173 242.632 40.8436 248.522 46.4473C248.636 46.559 248.699 46.7035 248.699 46.8534C248.699 47.0032 248.636 47.1478 248.522 47.2594C235.558 59.0624 212.844 77.6602 209.569 80.3267C211.752 83.67 226.485 106.18 227.177 107.235C227.251 107.336 227.291 107.454 227.291 107.574C227.291 107.694 227.251 107.811 227.177 107.912L193.344 144.702C193.273 144.779 193.18 144.839 193.076 144.877C192.971 144.915 192.857 144.929 192.744 144.918V144.918ZM229.007 28.039C203.479 44.9855 173.06 67.0213 170.569 73.8432C166.478 85.213 189.438 135.66 192.898 143.159L225.778 107.465L208.169 80.5027C208.096 80.3824 208.071 80.2444 208.096 80.1099C208.121 79.9754 208.195 79.8519 208.308 79.7582C208.554 79.5552 233.159 59.4549 247.154 46.8263C241.494 41.4121 235.712 35.4294 229.007 28.039Z" fill="#231F20"/>
<path d="M250.383 133.711C253.151 150.576 265.9 164.843 279.741 177.877C288.03 185.62 298.195 193.497 310.329 192.997C316.127 192.739 321.571 190.547 326.63 188.056C339.299 181.865 350.632 173.76 360.109 164.112C358.253 164.118 356.459 163.518 355.076 162.428C353.693 161.338 352.818 159.835 352.62 158.21C355.093 159.229 357.838 159.626 360.552 159.359C363.265 159.091 365.842 158.169 367.999 156.694C377.41 150.116 372.843 144.309 365.646 139.409C354.392 131.774 345.441 121.822 339.579 110.43C330.598 92.7525 312.759 69.133 286.338 74.5202C260.933 79.6907 254.043 99.7504 250.537 119.648C249.688 124.302 249.636 129.043 250.383 133.711V133.711Z" fill="#E1D1D1"/>
<path d="M309.191 193.633C297.272 193.633 287.369 185.918 279.233 178.297C266.239 166.115 252.567 151.321 249.691 133.806C248.912 129.055 248.948 124.227 249.799 119.485C251.337 110.958 253.782 100.035 259.58 91.1826C262.318 86.7763 266.109 82.9445 270.691 79.9513C275.273 76.958 280.538 74.8743 286.123 73.8436C298.18 71.3937 321.217 72.842 340.179 110.105C345.981 121.413 354.86 131.287 366.03 138.855C371.413 142.523 373.935 145.744 373.965 149.02C373.965 151.727 372.105 154.515 368.383 157.141C366.308 158.559 363.858 159.49 361.262 159.847C358.667 160.205 356.011 159.977 353.543 159.185C353.979 160.413 354.847 161.488 356.021 162.254C357.196 163.02 358.617 163.439 360.079 163.449C360.216 163.443 360.352 163.473 360.47 163.536C360.588 163.599 360.682 163.691 360.74 163.801C360.8 163.908 360.821 164.029 360.802 164.147C360.783 164.265 360.724 164.376 360.632 164.464C351.13 174.213 339.731 182.395 326.968 188.625C322.217 190.953 316.511 193.376 310.36 193.633H309.191ZM293.612 74.3309C291.2 74.3318 288.796 74.5725 286.446 75.0483C261.487 80.1376 254.751 99.4934 251.183 119.716C250.356 124.332 250.319 129.031 251.075 133.657V133.657C253.89 150.847 267.407 165.466 280.295 177.485C288.476 185.146 298.426 192.916 310.329 192.374C316.188 192.131 321.709 189.775 326.323 187.515C338.502 181.553 349.426 173.792 358.618 164.572C356.863 164.292 355.259 163.519 354.045 162.37C352.831 161.221 352.072 159.757 351.882 158.197C351.87 158.089 351.893 157.98 351.947 157.882C352.002 157.784 352.085 157.701 352.189 157.642C352.293 157.586 352.413 157.556 352.535 157.556C352.657 157.556 352.777 157.586 352.881 157.642C355.229 158.604 357.833 158.979 360.407 158.726C362.981 158.473 365.427 157.602 367.476 156.207C370.844 153.839 372.551 151.443 372.52 149.074C372.52 146.259 370.09 143.254 365.138 139.883C353.792 132.191 344.771 122.16 338.871 110.674C323.662 80.6791 305.915 74.3309 293.612 74.3309Z" fill="#231F20"/>
<path d="M426.053 186.648C424.976 190.398 407.306 218.173 407.306 218.173L430.374 229.15C430.374 229.15 451.243 198.37 453.027 196.326C454.811 194.282 469.943 176.537 472.004 170.311C474.065 164.085 459.516 159.483 453.55 159.983C447.583 160.484 427.129 182.899 426.053 186.648Z" fill="#E1D1D1"/>
<path d="M430.343 229.773C430.229 229.773 430.117 229.745 430.02 229.692L406.952 218.714C406.869 218.675 406.796 218.622 406.738 218.556C406.679 218.491 406.637 218.416 406.614 218.335C406.576 218.261 406.557 218.18 406.557 218.099C406.557 218.017 406.576 217.936 406.614 217.862C412.766 208.292 424.438 189.437 425.284 186.5C426.422 182.52 447.106 159.848 453.35 159.429C457.886 159.09 467.344 161.513 471.143 165.56C471.837 166.218 472.331 167.02 472.578 167.891C472.825 168.762 472.818 169.674 472.557 170.542C470.358 177.309 453.626 196.584 453.473 196.773C451.719 198.763 431.066 229.259 430.851 229.529C430.793 229.601 430.717 229.66 430.629 229.703C430.541 229.745 430.443 229.769 430.343 229.773ZM408.275 217.916L430.097 228.325C432.911 224.169 450.766 197.87 452.442 195.948C455.964 191.887 469.451 175.807 471.296 170.135C471.497 169.459 471.497 168.749 471.295 168.073C471.093 167.398 470.696 166.779 470.143 166.278C466.683 162.583 457.686 160.282 453.565 160.593C447.936 161.026 427.667 183.603 426.729 186.798C425.714 190.33 410.828 213.896 408.275 217.916Z" fill="#231F20"/>
<path d="M419.424 198.655L398.817 220.772L354.373 194.553L335.442 225.577C335.442 225.577 398.387 267.172 407.306 263.192C416.226 259.213 443.246 210.133 443.246 210.133L419.424 198.655Z" fill="#231F20"/>
<path d="M405.876 264.031C392.897 264.031 341.178 230.111 335.027 226.05C334.901 225.962 334.814 225.839 334.78 225.7C334.746 225.562 334.768 225.418 334.842 225.292L353.773 194.269C353.818 194.196 353.879 194.131 353.953 194.08C354.027 194.029 354.113 193.992 354.204 193.971C354.295 193.95 354.39 193.947 354.483 193.961C354.576 193.975 354.664 194.006 354.742 194.052L398.648 219.973L418.871 198.316C418.968 198.206 419.107 198.131 419.262 198.103C419.418 198.076 419.579 198.099 419.717 198.167L443.615 209.645C443.764 209.722 443.875 209.845 443.927 209.99C443.978 210.136 443.965 210.293 443.892 210.43C442.785 212.447 416.626 259.74 407.583 263.76C407.047 263.969 406.461 264.061 405.876 264.031V264.031ZM336.303 225.401C354.081 237.109 400.048 265.764 407.045 262.664C415.18 259.023 439.54 215.614 442.415 210.39L419.594 199.412L399.34 221.15C399.239 221.269 399.089 221.348 398.922 221.371C398.756 221.394 398.585 221.358 398.448 221.272L354.604 195.406L336.303 225.401Z" fill="#231F20"/>
<path d="M438.294 144.567L438.094 198.655H467.175V144.567H438.294Z" fill="#231F20"/>
<path d="M467.175 199.304H438.094C438.004 199.304 437.915 199.288 437.831 199.257C437.748 199.227 437.673 199.182 437.61 199.125C437.547 199.068 437.497 199.001 437.464 198.927C437.431 198.853 437.415 198.774 437.417 198.695L437.602 144.553C437.606 144.394 437.681 144.242 437.81 144.131C437.939 144.02 438.113 143.957 438.294 143.957H467.175C467.354 143.957 467.526 144.02 467.653 144.132C467.78 144.243 467.852 144.395 467.852 144.553V198.695C467.854 198.774 467.838 198.853 467.805 198.927C467.771 199.001 467.722 199.068 467.659 199.125C467.596 199.182 467.521 199.227 467.437 199.257C467.354 199.288 467.265 199.304 467.175 199.304ZM438.786 198.113H466.467V145.162H438.94L438.786 198.113Z" fill="#231F20"/>
<path d="M441.247 149.345L441.093 191.846H464.191V149.345H441.247Z" fill="#E1D1D1"/>
<path d="M464.192 192.455H441.124C441.032 192.457 440.942 192.442 440.857 192.412C440.773 192.382 440.696 192.337 440.632 192.279C440.565 192.221 440.513 192.152 440.478 192.075C440.444 191.998 440.428 191.915 440.432 191.833L440.57 149.345C440.574 149.182 440.65 149.027 440.783 148.913C440.915 148.799 441.093 148.736 441.278 148.736H464.222C464.406 148.736 464.582 148.8 464.712 148.914C464.841 149.028 464.914 149.183 464.914 149.345V191.846C464.914 191.929 464.896 192.01 464.859 192.086C464.822 192.162 464.768 192.23 464.701 192.287C464.633 192.344 464.553 192.388 464.466 192.417C464.378 192.446 464.285 192.459 464.192 192.455V192.455ZM441.8 191.183H463.484V149.967H441.954L441.8 191.183Z" fill="#231F20"/>
<path d="M424.792 189.464C424.792 189.464 420.455 171.245 426.96 168.389C433.465 165.533 455.826 162.19 452.365 166.657C448.905 171.123 436.787 173.885 436.787 173.885C436.787 173.885 439.278 180.26 436.541 184.781" fill="#E1D1D1"/>
<path d="M424.792 190.073C424.632 190.075 424.476 190.028 424.352 189.939C424.228 189.849 424.144 189.724 424.115 189.586C423.93 188.828 419.732 170.866 426.652 167.834C432.266 165.384 450.381 162.231 453.027 164.883C453.307 165.187 453.453 165.57 453.436 165.961C453.419 166.352 453.24 166.725 452.934 167.009C449.859 171.069 440.37 173.641 437.663 174.318C438.232 176.091 439.524 181.167 437.156 185.146C437.065 185.289 436.914 185.394 436.736 185.44C436.558 185.485 436.366 185.467 436.202 185.39C436.041 185.31 435.92 185.178 435.866 185.022C435.811 184.865 435.827 184.697 435.91 184.551C438.478 180.328 436.141 174.223 436.11 174.155C436.072 174.078 436.052 173.996 436.052 173.912C436.052 173.828 436.072 173.745 436.11 173.668C436.157 173.593 436.221 173.526 436.298 173.473C436.374 173.42 436.462 173.38 436.556 173.357C436.679 173.357 448.459 170.65 451.735 166.386C451.965 166.088 452.027 165.872 451.919 165.763C450.258 164.085 433.465 166.305 427.221 169.012C422.285 171.177 424.269 184.456 425.437 189.396C425.458 189.475 425.46 189.557 425.444 189.637C425.427 189.717 425.393 189.793 425.343 189.861C425.293 189.93 425.228 189.988 425.152 190.034C425.075 190.079 424.99 190.111 424.899 190.127L424.792 190.073Z" fill="#231F20"/>
<path d="M264.009 154.082L225.701 96.204L182.641 138.286L198.634 168.633C198.634 168.633 174.029 219.892 174.029 320.366C174.029 320.366 305.023 319.865 337.995 319.865L294.935 260.918C294.935 260.918 305.7 233.603 311.252 226.781L343.316 242.144L380.809 197.193L264.009 154.082Z" fill="#30BFC8"/>
<path d="M263.455 209.253C284.601 220.081 289.599 176.064 290.537 166.535C290.966 163.914 290.788 161.243 290.014 158.684C288.799 155.436 285.954 152.918 283.109 150.563C279.71 147.856 275.789 145.013 271.16 144.837C268.999 144.867 266.877 145.342 264.962 146.223C263.047 147.105 261.393 148.368 260.133 149.913C257.637 153.022 255.841 156.523 254.843 160.227C249.86 175.536 250.045 191.697 259.657 205.612C260.461 206.938 261.603 208.083 262.994 208.955L263.455 209.253Z" fill="#231F20"/>
<path d="M269.776 211.554C267.415 211.49 265.116 210.873 263.117 209.767L262.64 209.51C261.156 208.589 259.94 207.375 259.088 205.964C250.276 193.2 248.584 177.35 254.197 160.105C255.217 156.328 257.049 152.758 259.595 149.588C260.916 147.962 262.655 146.634 264.67 145.712C266.685 144.79 268.919 144.3 271.19 144.282C275.927 144.458 279.941 147.22 283.493 150.17C286.384 152.512 289.306 155.097 290.583 158.495C291.377 161.143 291.565 163.903 291.136 166.616C289.706 180.815 285.6 205.409 274.22 210.593C272.849 211.224 271.324 211.554 269.776 211.554V211.554ZM270.729 145.473C268.744 145.561 266.807 146.043 265.063 146.882C263.318 147.721 261.812 148.896 260.656 150.319C258.223 153.37 256.474 156.802 255.504 160.43C249.983 177.35 251.629 192.915 260.241 205.341C260.976 206.587 262.029 207.666 263.317 208.495L263.763 208.725C267.423 210.606 270.652 210.864 273.62 209.51C281.525 205.91 287.461 190.235 289.829 166.481C290.24 163.937 290.072 161.347 289.337 158.86C288.168 155.733 285.385 153.283 282.617 151.037C279.172 148.248 275.404 145.622 271.098 145.473H270.729Z" fill="#231F20"/>
<path d="M326.553 126.713C328.506 132.953 325.308 140.898 320.51 145.514C317.311 148.559 310.298 149.372 308.883 144.418C308 141.155 307.868 137.771 308.494 134.463C309.12 131.155 310.491 127.991 312.528 125.157C315.604 120.703 321.494 118.159 325.277 123.884C325.839 124.775 326.269 125.726 326.553 126.713V126.713Z" fill="#231F20"/>
<path d="M314.143 148.56C313.553 148.563 312.964 148.504 312.39 148.384C311.357 148.153 310.419 147.671 309.682 146.994C308.946 146.317 308.44 145.471 308.222 144.553C307.318 141.221 307.176 137.764 307.805 134.382C308.433 131.001 309.819 127.764 311.882 124.859C314.035 121.813 317.08 119.973 319.925 119.986C321.54 119.986 323.862 120.649 325.8 123.6C326.411 124.532 326.886 125.528 327.215 126.564V126.564C329.337 133.332 325.677 141.453 321.063 145.92C320.172 146.749 319.099 147.41 317.91 147.863C316.721 148.317 315.439 148.554 314.143 148.56V148.56ZM319.848 121.177C317.511 121.177 314.912 122.815 313.036 125.468C311.062 128.24 309.737 131.331 309.138 134.559C308.538 137.787 308.677 141.088 309.545 144.269C309.7 144.977 310.082 145.631 310.646 146.154C311.21 146.677 311.933 147.047 312.728 147.22C314.044 147.433 315.4 147.351 316.672 146.982C317.943 146.613 319.088 145.969 320.002 145.108C324.339 140.966 327.876 133.156 325.907 126.876C325.616 125.929 325.187 125.019 324.631 124.169C323.324 122.192 321.74 121.177 319.91 121.164L319.848 121.177Z" fill="#231F20"/>
<path d="M293.566 154.637C290.491 165.019 287.415 188.665 267.807 176.294C265.799 174.905 264.046 173.252 262.609 171.394C252.951 160.065 255.704 152.918 260.702 140.479C262.855 135.065 264.716 129.65 266.854 124.236C268.991 118.822 272.513 113.733 275.435 108.603C275.327 108.779 285.046 109.956 294.766 106.072C304.485 102.187 312.528 98.1533 312.528 98.1533C315.158 101.618 318.003 104.244 319.402 108.359C320.693 112.351 321.065 116.53 320.494 120.649C319.264 130.76 314.666 141.697 309.452 150.725C304.239 159.753 293.566 154.637 293.566 154.637Z" fill="#E1D1D1"/>
<path d="M277.711 180.449C274.635 180.449 271.206 179.231 267.392 176.822C265.326 175.394 263.521 173.696 262.04 171.787C252.09 160.106 255.089 152.648 260.041 140.303C261.071 137.704 262.056 135.038 263.009 132.466C264.039 129.691 265.101 126.835 266.239 124.033C267.956 120.109 269.986 116.296 272.313 112.623C273.174 111.188 274.035 109.753 274.851 108.319C274.891 108.246 274.948 108.182 275.018 108.129C275.087 108.076 275.168 108.035 275.255 108.01C275.342 107.985 275.435 107.975 275.526 107.982C275.618 107.988 275.707 108.011 275.789 108.048C282.164 108.708 288.623 107.828 294.474 105.503C304.039 101.646 312.097 97.6391 312.174 97.5985C312.332 97.5246 312.514 97.5044 312.688 97.5418C312.861 97.5793 313.012 97.6718 313.112 97.8016C313.774 98.6678 314.435 99.48 315.096 100.279C317.276 102.623 318.963 105.29 320.079 108.156C321.39 112.232 321.772 116.497 321.202 120.704C320.079 129.759 316.142 140.52 310.083 150.983C309.449 152.225 308.531 153.339 307.385 154.255C306.239 155.17 304.89 155.867 303.424 156.302C300.277 157.006 296.951 156.743 293.997 155.558C293.689 156.627 293.366 157.832 293.043 159.09C291.013 166.846 288.245 177.485 280.91 179.922C279.887 180.263 278.804 180.442 277.711 180.449ZM275.866 109.293C275.127 110.647 274.328 111.892 273.559 113.191C271.263 116.817 269.258 120.58 267.561 124.453C266.438 127.16 265.377 130.084 264.347 132.845C263.317 135.606 262.409 138.097 261.364 140.709C256.396 153.081 253.674 159.889 263.178 171.042C264.573 172.852 266.274 174.463 268.222 175.82C273.051 178.879 277.173 179.881 280.525 178.771C287.153 176.565 289.752 166.318 291.782 158.833C292.198 157.263 292.567 155.788 292.951 154.529C292.981 154.44 293.032 154.357 293.102 154.287C293.171 154.217 293.258 154.161 293.354 154.124C293.451 154.087 293.556 154.068 293.662 154.07C293.767 154.073 293.871 154.095 293.966 154.136C296.81 155.423 300.082 155.774 303.193 155.125C304.475 154.739 305.652 154.124 306.65 153.318C307.648 152.512 308.445 151.532 308.991 150.441C314.973 140.1 318.879 129.488 319.971 120.582C320.527 116.543 320.161 112.448 318.895 108.535C317.803 105.799 316.168 103.256 314.066 101.023C313.512 100.36 312.943 99.6695 312.405 98.9791C310.39 99.9537 303.316 103.351 295.15 106.64C289.109 109.032 282.448 109.948 275.866 109.293V109.293Z" fill="#231F20"/>
<path d="M290.337 164.68C290.337 164.68 280.817 162.772 276.496 155.801C272.175 148.83 274.789 143.484 274.789 143.484C274.789 143.484 283.093 151.943 293.597 154.678L290.337 164.68Z" fill="#231F20"/>
<path d="M290.337 165.276H290.183C289.783 165.195 280.31 163.232 275.881 156.112C271.452 148.993 274.02 143.497 274.128 143.267C274.174 143.174 274.246 143.093 274.337 143.031C274.429 142.97 274.537 142.93 274.651 142.915C274.763 142.901 274.877 142.911 274.984 142.944C275.091 142.977 275.188 143.032 275.266 143.105C275.266 143.186 283.586 151.47 293.72 154.123C293.806 154.144 293.887 154.181 293.957 154.23C294.027 154.28 294.085 154.341 294.128 154.41C294.17 154.479 294.197 154.555 294.207 154.634C294.216 154.712 294.207 154.792 294.181 154.867L290.998 164.843C290.957 164.969 290.871 165.08 290.751 165.158C290.631 165.236 290.486 165.278 290.337 165.276ZM275.05 144.661C274.156 148.365 274.875 152.23 277.065 155.49C280.587 161.148 287.722 163.367 289.86 163.922L292.736 155.057C284.231 152.661 277.342 146.786 275.05 144.661V144.661Z" fill="#231F20"/>
<path d="M296.165 137.582C294.228 137.45 292.351 136.932 290.675 136.066C290.518 135.987 290.403 135.857 290.356 135.703C290.308 135.55 290.332 135.386 290.421 135.247C290.511 135.109 290.66 135.008 290.834 134.966C291.008 134.924 291.195 134.945 291.352 135.024C292.536 135.62 295.965 136.973 297.503 136.093C298.503 135.525 297.411 129.962 295.104 123.911C295.047 123.761 295.06 123.596 295.141 123.454C295.222 123.312 295.363 123.204 295.535 123.153C295.706 123.103 295.893 123.115 296.055 123.186C296.216 123.257 296.339 123.382 296.396 123.532C297.78 127.146 300.717 135.714 298.226 137.068C297.608 137.408 296.894 137.586 296.165 137.582V137.582Z" fill="#231F20"/>
<path d="M293.351 144.918C291.755 144.94 290.176 144.634 288.737 144.025C284.893 142.347 282.586 138.408 281.786 132.317C281.769 132.159 281.822 132.002 281.934 131.878C282.046 131.754 282.208 131.674 282.386 131.654C282.475 131.644 282.565 131.65 282.651 131.672C282.738 131.693 282.818 131.73 282.888 131.779C282.958 131.828 283.017 131.889 283.06 131.958C283.103 132.027 283.13 132.103 283.14 132.181C283.862 137.839 285.939 141.467 289.291 143.01C294.412 145.243 300.948 141.859 301.01 141.832C301.086 141.791 301.171 141.763 301.26 141.751C301.349 141.738 301.44 141.742 301.527 141.76C301.614 141.779 301.697 141.813 301.769 141.861C301.841 141.908 301.902 141.967 301.948 142.035C302.039 142.172 302.066 142.335 302.023 142.489C301.98 142.644 301.87 142.777 301.717 142.861C299.154 144.123 296.286 144.828 293.351 144.918Z" fill="#231F20"/>
<path d="M294.074 117.901C293.902 117.901 293.737 117.844 293.611 117.741C293.485 117.638 293.409 117.497 293.397 117.346C293.289 115.993 292.843 115.167 292.044 114.815C290.506 114.112 287.63 115.384 286.677 115.939C286.526 116.027 286.341 116.058 286.164 116.026C285.987 115.995 285.831 115.902 285.731 115.769C285.631 115.637 285.595 115.474 285.631 115.318C285.667 115.162 285.772 115.025 285.923 114.937C286.092 114.842 290.029 112.596 292.644 113.746C293.325 114.109 293.881 114.628 294.252 115.248C294.623 115.868 294.796 116.565 294.75 117.265C294.757 117.343 294.745 117.422 294.717 117.496C294.689 117.57 294.644 117.639 294.585 117.698C294.527 117.757 294.455 117.806 294.376 117.84C294.296 117.875 294.209 117.896 294.12 117.901H294.074Z" fill="#231F20"/>
<path d="M311.129 124.615C310.959 124.616 310.796 124.56 310.671 124.46C310.545 124.36 310.467 124.222 310.452 124.074C310.452 124.074 310.144 121.096 308.222 120.013C306.561 119.052 304.623 121.245 304.608 121.272C304.554 121.334 304.486 121.387 304.409 121.426C304.331 121.465 304.246 121.491 304.157 121.501C304.068 121.511 303.978 121.505 303.892 121.485C303.806 121.464 303.725 121.428 303.655 121.38C303.582 121.333 303.521 121.274 303.475 121.207C303.429 121.139 303.399 121.064 303.386 120.986C303.373 120.908 303.378 120.828 303.4 120.752C303.423 120.676 303.462 120.604 303.516 120.541C304.454 119.458 306.792 117.753 308.976 119.011C311.452 120.446 311.79 123.857 311.805 123.992C311.814 124.071 311.804 124.15 311.778 124.225C311.752 124.3 311.709 124.37 311.651 124.43C311.594 124.49 311.524 124.54 311.445 124.577C311.366 124.613 311.279 124.635 311.19 124.642L311.129 124.615Z" fill="#231F20"/>
<path d="M257.042 121.34C256.801 123.497 257.226 125.671 258.272 127.634C260.456 131.193 265.839 132.642 270.237 131.491C281.725 128.5 287.246 109.266 278.557 101.713C270.483 94.7016 261.317 105.774 259.426 112.311C258.549 115.384 257.165 118.226 257.042 121.34Z" fill="#231F20"/>
<path d="M267.161 132.479C265.263 132.523 263.386 132.124 261.719 131.323C260.053 130.522 258.657 129.347 257.673 127.918C256.552 125.865 256.1 123.578 256.366 121.312V121.312C256.577 119.047 257.093 116.811 257.903 114.653C258.18 113.827 258.457 113.002 258.703 112.176C260.041 107.628 265.008 100.576 270.868 99.1548C272.311 98.8181 273.832 98.8397 275.263 99.2171C276.693 99.5946 277.977 100.313 278.972 101.293C283.17 104.934 284.539 111.526 282.555 118.497C280.571 125.468 275.912 130.679 270.375 132.033C269.332 132.31 268.251 132.46 267.161 132.479V132.479ZM257.719 121.367C257.474 123.421 257.873 125.494 258.872 127.363C260.031 128.957 261.754 130.169 263.776 130.813C265.797 131.457 268.004 131.495 270.052 130.923C275.143 129.569 279.449 124.723 281.294 118.213C283.14 111.702 281.925 105.489 278.08 102.146C277.256 101.311 276.182 100.694 274.982 100.367C273.781 100.039 272.5 100.013 271.283 100.292C265.992 101.645 261.302 108.318 260.072 112.474C259.826 113.313 259.549 114.152 259.272 114.991C258.475 117.055 257.958 119.195 257.734 121.367H257.719Z" fill="#231F20"/>
<path d="M320.909 133.237C320.621 133.238 320.339 133.168 320.094 133.034C319.749 132.847 319.501 132.547 319.406 132.199C319.311 131.852 319.376 131.486 319.587 131.18C319.756 130.936 336.811 106.248 339.733 90.8577C340.794 85.2811 337.98 79.6232 331.813 74.8993C323.385 68.4564 310.806 65.5734 301.901 68.0504C286.062 72.4629 277.634 104.596 277.542 104.867C277.45 105.214 277.207 105.516 276.864 105.706C276.521 105.896 276.107 105.959 275.712 105.882C275.314 105.804 274.968 105.591 274.749 105.289C274.53 104.987 274.456 104.621 274.543 104.271C274.897 102.918 283.463 70.3379 300.979 65.4651C310.99 62.6903 324.493 65.7223 333.827 72.8555C340.84 78.2697 344.023 84.7667 342.778 91.3044C339.702 107.222 322.924 131.559 322.217 132.588C322.08 132.785 321.888 132.949 321.659 133.063C321.43 133.176 321.172 133.236 320.909 133.237V133.237Z" fill="#231F20"/>
<path d="M404.292 324.941C398.779 324.925 393.304 324.144 388.068 322.626C381.826 320.678 376.053 317.722 371.044 313.91C362.508 307.832 354.988 300.577 347.714 293.606C343.101 289.153 338.333 284.551 333.351 280.301C317.741 266.982 302.24 259.889 287.215 259.24C267.007 258.346 249.091 268.511 232.759 279.624C231.222 280.707 229.561 281.83 227.931 282.967C214.72 292.185 199.742 302.621 181.287 300.171C168.708 298.506 158.942 290.872 152.975 284.768C138.289 269.73 131.445 248.222 134.844 227.363C138.443 204.894 152.668 189.058 177.135 180.287C197.389 173.032 216.504 162.88 235.005 153.067L235.158 152.999C246.616 146.908 258.78 139.112 262.056 127.417C262.105 127.238 262.232 127.083 262.411 126.986C262.59 126.89 262.805 126.86 263.009 126.903C263.213 126.946 263.389 127.058 263.499 127.216C263.608 127.373 263.642 127.562 263.593 127.742C260.179 139.924 247.723 147.923 235.989 154.15L235.851 154.231C217.304 164.071 198.127 174.25 177.766 181.546C153.837 190.114 139.934 205.585 136.413 227.566C133.122 248.032 139.765 269.08 154.129 283.82C159.927 289.762 169.384 297.18 181.503 298.777C199.296 301.146 213.367 291.332 226.962 281.857L231.806 278.501C248.384 267.225 266.577 256.911 287.276 257.832C302.655 258.509 318.495 265.723 334.381 279.272C339.394 283.563 344.177 288.179 348.806 292.645C356.034 299.63 363.508 306.844 371.966 312.854C376.827 316.559 382.427 319.437 388.483 321.341C409.259 327.242 430.005 321.435 450.289 304.069C480.385 278.243 497.348 239.099 496.809 196.543C496.563 176.673 492.35 161.148 483.922 149.06C480.524 144.174 476.233 138.733 469.251 136.012C465.683 134.659 457.317 134.144 454.088 138.137C452.857 139.667 452.734 141.467 452.55 143.754C452.55 144.743 452.396 145.852 452.227 147.057C452.2 147.237 452.094 147.4 451.931 147.51C451.768 147.62 451.562 147.669 451.358 147.646C451.154 147.623 450.969 147.529 450.844 147.386C450.718 147.242 450.663 147.061 450.689 146.881C450.874 145.717 450.935 144.675 451.012 143.673C451.181 141.264 451.335 139.193 452.827 137.352C456.579 132.71 465.775 133.197 469.866 134.78C477.309 137.65 481.692 143.294 485.245 148.316C493.826 160.62 498.101 176.375 498.363 196.502C498.901 239.383 481.785 278.934 451.381 305.003C435.972 318.281 420.178 324.927 404.292 324.941Z" fill="#231F20"/>
<path d="M255.627 26.618C255.517 26.6172 255.408 26.5963 255.308 26.5567C255.207 26.5171 255.117 26.4597 255.043 26.3879C254.901 26.2592 254.822 26.0868 254.822 25.9074C254.822 25.728 254.901 25.5557 255.043 25.4269C258.426 22.8416 261.779 21.7046 265.024 22.0295C267.778 22.3608 270.28 23.617 272.006 25.5352C272.122 25.6816 272.17 25.8623 272.138 26.039C272.107 26.2158 271.999 26.3748 271.836 26.4827C271.755 26.5353 271.662 26.5732 271.564 26.5942C271.465 26.6152 271.363 26.6189 271.263 26.6051C271.163 26.5912 271.067 26.5601 270.981 26.5136C270.894 26.467 270.819 26.4059 270.76 26.3338C269.289 24.7184 267.18 23.6503 264.855 23.3424C262.056 23.0582 259.103 24.1004 256.058 26.4285C255.942 26.5315 255.791 26.598 255.627 26.618V26.618Z" fill="#231F20"/>
<path d="M301.44 245.758C301.334 245.778 301.224 245.778 301.117 245.758C300.953 245.681 300.829 245.55 300.771 245.393C300.714 245.237 300.728 245.067 300.81 244.919L320.217 210.674C320.301 210.529 320.447 210.419 320.623 210.368C320.799 210.317 320.99 210.33 321.155 210.404C321.321 210.477 321.446 210.606 321.504 210.76C321.561 210.915 321.547 211.084 321.463 211.229L302.071 245.42C302.013 245.523 301.923 245.61 301.811 245.669C301.699 245.729 301.571 245.76 301.44 245.758Z" fill="#231F20"/>
<path d="M265.285 252.431C243.063 252.431 216.95 246.097 215.505 245.745C215.405 245.733 215.309 245.702 215.224 245.655C215.139 245.608 215.066 245.545 215.01 245.471C214.955 245.397 214.918 245.314 214.902 245.226C214.886 245.139 214.891 245.049 214.918 244.964C214.944 244.878 214.991 244.799 215.055 244.731C215.12 244.662 215.2 244.607 215.29 244.568C215.381 244.529 215.48 244.508 215.58 244.505C215.681 244.503 215.781 244.519 215.874 244.554C216.35 244.662 262.978 255.991 284.539 248.75C284.714 248.693 284.908 248.699 285.078 248.768C285.248 248.836 285.381 248.961 285.446 249.115C285.481 249.19 285.498 249.269 285.496 249.35C285.494 249.43 285.474 249.509 285.437 249.583C285.4 249.656 285.346 249.722 285.279 249.777C285.212 249.831 285.133 249.873 285.047 249.9C278.68 251.76 271.99 252.617 265.285 252.431V252.431Z" fill="#231F20"/>
<path d="M453.796 140.777H450.443V145.161H453.796V140.777Z" fill="#231F20"/>
<path d="M453.795 145.757H450.443C450.262 145.757 450.088 145.695 449.959 145.584C449.83 145.473 449.755 145.321 449.751 145.162V140.776C449.751 140.697 449.769 140.618 449.804 140.545C449.839 140.472 449.89 140.406 449.955 140.35C450.019 140.295 450.095 140.251 450.179 140.222C450.263 140.193 450.353 140.179 450.443 140.181H453.795C453.975 140.181 454.147 140.244 454.274 140.355C454.401 140.467 454.472 140.618 454.472 140.776V145.162C454.472 145.32 454.401 145.471 454.274 145.583C454.147 145.695 453.975 145.757 453.795 145.757ZM451.12 144.553H453.119V141.372H451.12V144.553Z" fill="#231F20"/>
<path d="M270.468 127.999L269.36 127.052C272.775 124.061 275.004 120.181 275.716 115.987C276.428 111.793 275.585 107.51 273.313 103.771L274.635 103.08C277.074 107.077 277.986 111.658 277.235 116.147C276.484 120.635 274.111 124.791 270.468 127.999V127.999Z" fill="#E1D1D1"/>
<path d="M321.217 145.758L319.787 145.257C324.277 135.065 323.139 127.539 323.139 127.471L324.677 127.282C324.708 127.566 325.861 135.2 321.217 145.758Z" fill="#E1D1D1"/>
<path d="M208.211 79.7487L197.069 89.7727L198.169 90.7192L209.31 80.6952L208.211 79.7487Z" fill="#E1D1D1"/>
<path d="M399.166 220.188L398.49 221.403L410.326 226.504L411.002 225.289L399.166 220.188Z" fill="#E1D1D1"/>
<path d="M90.7384 153.73C90.0925 153.595 89.4004 153.5 88.7699 153.311C87.7794 153.095 86.87 152.655 86.1311 152.036C85.3923 151.416 84.8495 150.638 84.5562 149.778C84.345 149.029 84.3181 148.249 84.4772 147.491C84.6364 146.732 84.9779 146.012 85.4789 145.379C86.3179 144.259 87.4083 143.302 88.683 142.566C89.9577 141.831 91.3898 141.332 92.8914 141.102C94.8752 140.709 95.7672 140.804 98.9198 141.481V108.887L135.336 102.471V103.202C135.336 116.25 135.336 129.285 135.336 142.333C135.382 143.356 135.164 144.375 134.697 145.313C134.231 146.251 133.53 147.083 132.645 147.748C131.201 148.981 129.41 149.854 127.456 150.277C125.502 150.7 123.456 150.659 121.526 150.157C120.527 149.962 119.608 149.531 118.865 148.911C118.123 148.291 117.586 147.505 117.313 146.638C117.089 145.893 117.055 145.114 117.211 144.356C117.368 143.598 117.712 142.88 118.22 142.252C119.058 141.126 120.152 140.164 121.433 139.428C122.714 138.692 124.154 138.197 125.663 137.975C127.652 137.592 129.724 137.724 131.63 138.354V115.939L129.046 116.386C120.383 117.92 111.735 119.44 103.103 120.947C102.626 121.029 102.549 121.191 102.549 121.57C102.549 129.502 102.549 137.42 102.549 145.338C102.594 146.553 102.293 147.758 101.672 148.843C101.051 149.928 100.132 150.859 98.9967 151.551C97.2992 152.681 95.2949 153.4 93.1836 153.636C93.0737 153.661 92.9658 153.693 92.8606 153.73H90.7384Z" fill="white"/>
<path d="M386.853 56.22C387.171 56.0942 387.479 55.9495 387.775 55.7869C388.232 55.5661 388.614 55.2435 388.884 54.8515C389.154 54.4594 389.302 54.0118 389.313 53.5535C389.312 53.1581 389.212 52.7678 389.02 52.41C388.829 52.0522 388.551 51.7356 388.206 51.4826C387.625 51.0288 386.944 50.6844 386.207 50.4702C385.469 50.2561 384.689 50.1768 383.915 50.2373C382.866 50.2699 381.851 50.5709 380.993 51.1036L376.149 34.9692L357.126 35.9709L357.234 36.3093C359.156 42.7657 361.109 49.2221 363.031 55.6921C363.159 56.2022 363.417 56.6802 363.784 57.0904C364.152 57.5006 364.62 57.8324 365.153 58.0608C366.053 58.5018 367.068 58.7254 368.098 58.7087C369.127 58.6921 370.133 58.4359 371.013 57.9661C371.473 57.7531 371.859 57.4342 372.13 57.0433C372.401 56.6523 372.546 56.2041 372.551 55.7463C372.551 55.3519 372.453 54.9622 372.265 54.6045C372.076 54.2468 371.801 53.9297 371.459 53.6753C370.872 53.216 370.184 52.8674 369.438 52.6509C368.692 52.4344 367.904 52.3546 367.122 52.4165C366.084 52.4543 365.08 52.7551 364.231 53.2828L361.001 42.292L362.355 42.2107L375.872 41.4934C376.118 41.4934 376.18 41.4934 376.241 41.737C377.41 45.6488 378.61 49.5741 379.748 53.4994C379.898 54.1125 380.223 54.6822 380.691 55.1554C381.158 55.6287 381.755 55.9903 382.424 56.2065C383.436 56.5703 384.538 56.6963 385.622 56.5719H385.792L386.853 56.22Z" fill="white"/>
<path d="M460.839 276.687C460.839 276.43 460.839 276.172 460.839 275.915C460.744 275.205 460.442 274.529 459.962 273.953C459.182 272.952 458.171 272.108 456.994 271.476C455.818 270.811 454.507 270.352 453.134 270.122C452.261 269.973 451.363 269.973 450.489 270.122H450.259C450.25 270.032 450.25 269.941 450.259 269.851C450.412 269.323 450.566 268.809 450.735 268.308L453.811 258.833C454.934 255.395 456.072 251.957 457.194 248.519V248.316L456.118 248.235C453.172 248.097 450.23 248.56 447.521 249.589C444.99 250.51 442.875 252.142 441.508 254.231C441.124 254.827 440.831 255.463 440.509 256.099C440.293 256.505 440.124 256.938 439.924 257.358C439.916 257.416 439.916 257.476 439.924 257.534L440.309 257.331C441.53 256.625 442.81 256.001 444.138 255.463C446.187 254.652 448.432 254.299 450.674 254.434C451.639 254.518 452.589 254.704 453.503 254.989C453.496 255.057 453.496 255.125 453.503 255.192C451.637 260.895 449.787 266.594 447.952 272.288C447.928 272.39 447.928 272.496 447.952 272.599C448.083 273.606 448.567 274.552 449.336 275.306C450.309 276.352 451.539 277.19 452.934 277.756L454.134 278.216L455.241 278.5H455.549C456.462 278.663 457.403 278.663 458.317 278.5C459.086 278.405 459.79 278.069 460.301 277.553C460.467 277.348 460.621 277.136 460.762 276.917L460.839 276.687Z" fill="white"/>
<path d="M84.6023 279.665C84.6023 279.34 84.6023 279.002 84.7715 278.677C85.0408 277.783 85.5709 276.966 86.3094 276.308C87.5505 275.168 89.0486 274.269 90.7076 273.669C92.3682 273.026 94.1541 272.672 95.9671 272.626C97.1237 272.595 98.2766 272.756 99.3658 273.1L99.658 273.195C99.6656 273.078 99.6656 272.96 99.658 272.843C99.658 272.153 99.5042 271.489 99.4119 270.785C98.8275 266.517 98.238 262.263 97.6434 258.021C96.9975 253.392 96.3362 248.777 95.6903 244.161V243.89C96.167 243.89 96.6438 243.89 97.0897 243.985C100.913 244.32 104.597 245.427 107.855 247.22C110.883 248.861 113.212 251.335 114.483 254.259C114.818 255.101 115.101 255.96 115.329 256.83C115.513 257.399 115.636 257.981 115.79 258.563C115.814 258.638 115.814 258.718 115.79 258.793L115.344 258.455C113.936 257.329 112.435 256.298 110.854 255.368C108.419 253.959 105.622 253.108 102.718 252.891C101.458 252.819 100.193 252.883 98.9505 253.081V253.081C98.9581 253.167 98.9581 253.253 98.9505 253.338C99.9758 260.99 101.027 268.66 102.103 276.349C102.134 276.478 102.134 276.612 102.103 276.741C101.71 278.033 100.866 279.184 99.6887 280.03C98.1984 281.203 96.419 282.056 94.4908 282.521C93.9525 282.67 93.3989 282.778 92.8606 282.9L91.3228 283.062H91.0767C89.8665 283.13 88.6531 282.983 87.5089 282.629C86.5494 282.376 85.7286 281.822 85.2021 281.072C85.0236 280.78 84.8694 280.477 84.7407 280.166L84.6023 279.665Z" fill="white"/>
<path d="M400.878 113.828C401.078 113.476 401.247 113.11 401.478 112.785C402.195 111.866 403.17 111.124 404.307 110.633C406.221 109.777 408.316 109.279 410.459 109.171C412.618 109.021 414.79 109.237 416.856 109.808C418.182 110.167 419.414 110.751 420.486 111.527L420.778 111.73C420.852 111.604 420.914 111.472 420.962 111.337C421.193 110.538 421.408 109.74 421.608 108.928L425.299 93.9033C426.622 88.4891 427.939 83.0478 429.251 77.5795L429.328 77.2546C429.867 77.4577 430.374 77.6336 430.866 77.8367C435.018 79.5383 438.67 82.0577 441.539 85.2C444.24 88.0974 445.776 91.7002 445.906 95.4464C445.906 96.5087 445.845 97.5704 445.722 98.6272C445.722 99.3446 445.553 99.9808 445.46 100.752C445.451 100.839 445.419 100.922 445.368 100.996L444.999 100.468C443.916 98.714 442.682 97.0352 441.308 95.4464C439.19 93.0063 436.408 91.0745 433.219 89.8291C431.831 89.3112 430.374 88.9519 428.882 88.7598C428.882 88.7598 428.882 88.7598 428.775 88.7598C428.758 88.8652 428.732 88.9692 428.698 89.0711L422.054 116.061C422.018 116.219 421.951 116.37 421.854 116.508C420.835 117.829 419.373 118.837 417.671 119.391C415.462 120.191 413.074 120.539 410.689 120.406C410.013 120.406 409.352 120.325 408.675 120.271L406.906 119.946L406.614 119.837C405.219 119.497 403.917 118.912 402.785 118.118C401.822 117.491 401.141 116.585 400.863 115.56C400.803 115.17 400.767 114.777 400.755 114.383L400.878 113.828Z" fill="white"/>
<path d="M129.785 175.468C121.865 175.468 121.849 186.297 129.785 186.297C137.72 186.297 137.72 175.468 129.785 175.468Z" fill="white"/>
<path d="M410.736 153.486C410.588 153.039 410.319 152.63 409.951 152.295L409.321 151.875C408.855 151.632 408.324 151.501 407.783 151.496H406.922C406.509 151.48 406.099 151.565 405.738 151.74C405.353 151.842 405.008 152.034 404.738 152.295C404.45 152.534 404.233 152.831 404.107 153.161C403.914 153.481 403.824 153.842 403.846 154.204L403.954 154.935C404.098 155.383 404.367 155.793 404.738 156.126L405.368 156.545C405.836 156.784 406.366 156.91 406.906 156.911H407.767C408.179 156.932 408.589 156.852 408.952 156.681C409.331 156.57 409.674 156.379 409.951 156.126C410.494 155.596 410.81 154.916 410.843 154.204C410.812 153.973 410.766 153.73 410.736 153.486Z" fill="white"/>
<path d="M154.037 43.3479C149.085 43.3479 149.069 50.1157 154.037 50.1157C159.004 50.1157 158.988 43.3479 154.037 43.3479Z" fill="white"/>
<path d="M379.194 281.871C374.242 281.871 374.242 288.639 379.194 288.639C384.146 288.639 384.146 281.871 379.194 281.871Z" fill="white"/>
<path d="M0 500V328.412C33.7177 347.722 67.4354 367.032 102 359.298C136.565 351.564 171.976 316.787 207.375 300.958C242.774 285.13 278.16 288.249 319.875 303.532C361.59 318.815 409.633 346.261 447.375 352.435C485.117 358.608 512.559 343.51 540 328.412V500H0Z" fill="url(#paint0_linear_24_13)"/>
<defs>
<linearGradient id="paint0_linear_24_13" x1="270" y1="290.481" x2="270" y2="500" gradientUnits="userSpaceOnUse">
<stop stop-color="#ED4444"/>
<stop offset="1" stop-color="#920404"/>
</linearGradient>
</defs>
</svg>
